<svg width="26" height="25" viewBox="0 0 26 25" fill="none" xmlns="http://www.w3.org/2000/svg">
<path d="M0.152222 18.4593V6.5407C0.152222 2.94118 3.09936 0 6.70619 0H18.649C22.2558 0 25.203 2.94118 25.203 6.5407V18.4593C25.203 22.0588 22.2558 25 18.649 25H14.6309L12.5319 24.487L10.7242 25H6.70619C3.09936 25 0.152222 22.0588 0.152222 18.4593Z" fill="#212123"/>
<path d="M17.5523 16.527L18.1092 12.9104H14.6309V10.5677C14.6309 9.57594 15.1192 8.61834 16.6699 8.61834H18.2463V5.54037C18.2463 5.54037 16.8155 5.29242 15.4448 5.29242C12.5833 5.29242 10.7156 7.01951 10.7156 10.1573V12.9104H7.53717V16.527H10.7156V25H14.6309V16.527H17.5523Z" fill="white"/>
</svg>
