<svg width="26" height="25" viewBox="0 0 26 25" fill="none" xmlns="http://www.w3.org/2000/svg">
<path d="M25.1522 18.4593V6.5407C25.1522 2.92837 22.2178 0 18.5982 0L6.6554 0C3.03574 0 0.101429 2.92837 0.101429 6.5407V18.4593C0.101429 22.0716 3.03574 25 6.6554 25H18.5982C22.2178 25 25.1522 22.0716 25.1522 18.4593Z" fill="#212123"/>
<path d="M10.2541 20C10.3037 19.9779 10.3603 19.9557 10.4099 19.9336C10.5373 19.8745 10.6081 19.7712 10.6081 19.6162C10.6081 19.0995 10.6081 18.5754 10.6081 18.0587C10.6081 17.889 10.5869 17.8594 10.4382 17.9037C10.1195 17.9997 9.8009 18.0071 9.47517 17.9849C8.84497 17.948 8.28557 17.7413 7.83239 17.2468C7.61288 17.0106 7.47834 16.7227 7.35796 16.4275C7.13137 15.8813 6.80565 15.4236 6.32414 15.0915C6.23917 15.0324 6.1542 14.9734 6.08339 14.8996C5.94177 14.7446 5.98426 14.6265 6.18252 14.5674C6.40912 14.501 6.60738 14.5674 6.81273 14.6486C7.14554 14.7667 7.42169 14.966 7.6412 15.2539C7.76866 15.4163 7.87487 15.586 7.98817 15.7484C8.32806 16.2503 8.77416 16.5825 9.39729 16.6046C9.7655 16.6194 10.1195 16.5677 10.4665 16.4422C10.5798 16.4053 10.6435 16.3389 10.6577 16.2134C10.7002 15.8296 10.8489 15.4975 11.0967 15.2096C11.1321 15.1727 11.21 15.1136 11.1746 15.0472C11.1463 15.0029 11.0613 14.9955 11.0047 14.9881C10.2541 14.9143 9.5389 14.7224 8.87329 14.3386C8.10855 13.9031 7.57748 13.2609 7.26591 12.4121C7.08889 11.9397 7.01099 11.4452 6.94727 10.9506C6.90478 10.5816 6.90478 10.2125 6.93311 9.85081C6.96851 9.41532 7.06765 8.97982 7.26591 8.58124C7.40045 8.31551 7.52083 8.04979 7.71201 7.83573C7.87487 7.65858 7.87488 7.51096 7.80407 7.2969C7.70493 7.00166 7.66245 6.69902 7.67661 6.38163C7.70493 5.93876 7.81823 5.51065 7.94569 5.08992C7.96693 5.02349 8.00233 5.0161 8.06606 5.00872C8.43427 4.96444 8.76708 5.0973 9.09988 5.2154C9.59555 5.38517 10.0346 5.67303 10.4736 5.9609C10.5515 6.01257 10.6294 6.02733 10.7073 6.00519C11.0542 5.89447 11.4154 5.82804 11.7694 5.78375C12.3996 5.70256 13.0369 5.68041 13.6742 5.73946C14.1911 5.78375 14.708 5.86495 15.2108 6.01257C15.2887 6.03471 15.3595 6.01257 15.4374 5.9609C16.0392 5.55493 16.6765 5.20802 17.3846 5.03825C17.5404 5.00134 17.6962 4.99396 17.8591 5.0161C17.9157 5.02349 17.9299 5.05301 17.944 5.0973C18.1281 5.59922 18.2202 6.12329 18.1989 6.66212C18.1848 6.94261 18.1423 7.21571 18.0573 7.48144C18.029 7.57739 18.0502 7.63644 18.1069 7.71025C18.4184 8.07931 18.638 8.50005 18.8008 8.96506C19.0062 9.54818 19.0203 10.1461 18.9849 10.7513C18.9495 11.5042 18.7796 12.2276 18.4326 12.8993C18.2485 13.2536 18.0078 13.5709 17.7104 13.8441C17.158 14.3534 16.5066 14.6338 15.8127 14.8184C15.4869 14.8996 15.1541 14.9881 14.8142 14.9881C14.7788 14.9881 14.7434 15.0029 14.7009 15.0103C14.7293 15.1062 14.793 15.1579 14.8426 15.2243C15.1116 15.5786 15.2462 15.9846 15.2816 16.4201C15.3524 17.3797 15.2957 18.3392 15.3099 19.2988C15.3099 19.3209 15.3099 19.3357 15.3099 19.3578C15.2957 19.7859 15.3807 19.845 15.6994 19.941C13.922 19.9631 12.0951 19.9852 10.2753 20C10.2753 20 10.2753 19.9852 10.2753 19.9779L10.2541 20Z" fill="white"/>
</svg>
