<svg width="26" height="25" viewBox="0 0 26 25" fill="none" xmlns="http://www.w3.org/2000/svg">
<path d="M25.0507 18.4593V6.5407C25.0507 2.92837 22.1164 0 18.4967 0L6.55396 0C2.9343 0 -1.14441e-05 2.92837 -1.14441e-05 6.5407V18.4593C-1.14441e-05 22.0716 2.9343 25 6.55396 25H18.4967C22.1164 25 25.0507 22.0716 25.0507 18.4593Z" fill="#212123"/>
<path d="M7.27362 10.1745H9.69816V17.9549H7.27362V10.1745ZM8.49018 6.30994C9.2698 6.30994 9.89521 6.93408 9.89521 7.71213C9.89521 8.49017 9.2698 9.11431 8.49018 9.11431C7.71056 9.11431 7.08514 8.48162 7.08514 7.71213C7.08514 6.94263 7.71056 6.30994 8.49018 6.30994Z" fill="white"/>
<path d="M11.2232 10.1743H13.545V11.2345H13.5792C13.9048 10.6189 14.693 9.97766 15.8753 9.97766C18.3255 9.97766 18.7796 11.585 18.7796 13.6798V17.9462H16.355V14.1671C16.355 13.2608 16.3379 12.1066 15.0956 12.1066C13.8534 12.1066 13.6392 13.0898 13.6392 14.1073V17.9547H11.2147V10.1743H11.2232Z" fill="white"/>
</svg>
