<?xml version="1.0" standalone="no"?>
<!DOCTYPE svg PUBLIC "-//W3C//DTD SVG 20010904//EN"
 "http://www.w3.org/TR/2001/REC-SVG-20010904/DTD/svg10.dtd">
<svg version="1.0" xmlns="http://www.w3.org/2000/svg"
 width="2000.000000pt" height="2000.000000pt" viewBox="0 0 2000.000000 2000.000000"
 preserveAspectRatio="xMidYMid meet">
 <style>
  .logo {
    fill: black;
  }

  @media (prefers-color-scheme: dark) {
    .logo {
      fill: #d6dce2;
    }
  }
 </style>
<g class="logo" transform="translate(0.000000,2000.000000) scale(0.100000,-0.100000)" stroke="none">
<path d="M13010 14545 c-30 -7 -56 -14 -57 -14 -2 -1 -8 -3 -15 -5 -7 -3 -42
-14 -78 -25 -36 -12 -69 -21 -74 -20 -5 0 -12 -3 -15 -8 -3 -5 -33 -22 -66
-37 -60 -28 -158 -94 -205 -138 -14 -13 -61 -52 -105 -88 -44 -35 -91 -74
-105 -86 -14 -12 -44 -38 -66 -58 -23 -20 -46 -36 -52 -36 -6 0 -12 -4 -14 -9
-3 -8 -43 -42 -192 -164 -21 -18 -48 -41 -60 -52 -12 -12 -45 -39 -72 -60 -27
-22 -53 -45 -59 -52 -5 -6 -39 -35 -75 -64 -77 -64 -51 -39 -300 -279 -273
-262 -523 -511 -650 -649 -58 -63 -114 -123 -125 -135 -11 -12 -53 -59 -94
-106 -40 -47 -87 -101 -105 -121 -39 -45 -53 -62 -144 -174 -41 -49 -81 -99
-89 -110 -59 -71 -183 -240 -237 -322 -36 -54 -79 -114 -96 -133 -17 -19 -45
-52 -63 -73 -17 -21 -37 -44 -42 -50 -6 -7 -33 -39 -60 -72 -28 -33 -53 -62
-56 -65 -3 -3 -27 -36 -54 -74 -45 -64 -49 -74 -51 -133 -2 -56 3 -89 23 -143
9 -23 12 -40 7 -40 -7 0 -149 104 -152 112 -2 5 -10 8 -17 8 -7 0 -15 4 -17 9
-6 15 -152 128 -193 148 -22 11 -58 26 -80 33 -22 7 -44 15 -50 19 -16 9 -46
13 -105 13 -48 1 -125 -7 -125 -12 0 -1 -16 -3 -35 -5 -19 -2 -40 -3 -45 -4
-25 -2 -98 -68 -90 -80 3 -5 -7 -8 -21 -6 -26 3 -28 -8 -8 -59 3 -9 1 -17 -5
-17 -45 -5 -86 -31 -120 -76 -30 -39 -33 -48 -27 -89 5 -40 4 -45 -18 -54 -13
-5 -26 -20 -30 -34 -9 -38 -26 -32 -22 8 3 42 -9 39 -55 -16 -41 -50 -52 -83
-34 -102 12 -12 10 -20 -14 -57 -53 -83 -113 -131 -91 -74 5 14 16 38 25 55
22 43 18 47 -14 14 -40 -41 -151 -206 -145 -216 3 -4 0 -8 -7 -8 -6 0 -9 -8
-6 -20 3 -12 0 -20 -7 -20 -19 0 -100 -98 -103 -126 l-4 -26 28 22 c16 12 29
17 31 11 6 -19 -37 -97 -78 -140 -39 -41 -60 -46 -60 -14 0 14 -3 13 -21 -3
-30 -27 -46 -61 -58 -128 -12 -64 -34 -98 -58 -89 -9 4 -16 -2 -20 -15 -2 -11
-14 -22 -25 -25 -18 -5 -19 -7 -3 -31 12 -17 15 -37 11 -63 -3 -21 -5 -39 -6
-41 0 -2 -12 -14 -27 -28 l-28 -25 24 -18 23 -17 -24 -16 c-12 -8 -36 -18 -52
-22 -15 -4 -34 -12 -40 -19 -25 -25 -48 -66 -42 -76 4 -6 -2 -15 -13 -21 -30
-16 -32 1 -6 53 31 61 36 102 13 101 -15 -1 -16 5 -11 42 4 34 2 45 -10 50 -8
3 -18 17 -22 32 -8 28 -9 45 -19 169 -4 57 -14 93 -48 165 -44 97 -132 254
-149 268 -4 3 -16 20 -27 39 -36 59 -134 162 -196 203 -32 23 -77 58 -100 80
-22 22 -72 55 -111 74 -38 19 -72 38 -75 43 -20 28 -240 134 -305 147 -12 2
-61 12 -110 22 -50 10 -94 17 -100 17 -24 -2 -149 -47 -174 -63 -40 -26 -141
-135 -141 -153 0 -5 -4 -9 -10 -9 -5 0 -10 -7 -10 -15 0 -8 -3 -15 -7 -15 -5
0 -26 -32 -48 -72 -22 -39 -52 -84 -68 -100 -19 -21 -24 -34 -19 -45 7 -12 15
-9 43 19 20 18 48 34 65 36 16 2 33 8 38 13 6 5 14 9 18 9 10 0 -31 -82 -46
-92 -6 -4 -7 -8 -3 -8 4 0 3 -9 -3 -21 -6 -11 -13 -29 -15 -40 -4 -22 -60
-122 -79 -142 -21 -21 -104 -159 -136 -227 -50 -105 -133 -230 -153 -230 -7 0
-12 -13 -11 -32 1 -45 -36 -84 -82 -86 -19 -1 -44 -8 -55 -16 -18 -13 -19 -15
-4 -23 14 -8 14 -12 0 -39 -22 -43 -19 -62 15 -79 36 -19 38 -32 6 -45 -26
-10 -43 -35 -41 -60 1 -8 -4 -22 -10 -30 -6 -8 -12 -28 -13 -45 -5 -73 -116
-154 -143 -103 -15 28 -5 72 28 114 l26 35 -27 22 c-28 22 -28 23 -32 172 -6
224 -14 406 -18 445 -5 45 -17 131 -22 150 -2 8 -8 32 -13 54 -5 21 -21 50
-34 65 -14 14 -35 55 -48 89 -15 44 -29 66 -45 72 -12 5 -35 27 -50 49 -22 30
-38 41 -66 46 -20 4 -42 13 -49 21 -6 8 -17 14 -23 14 -6 0 -32 20 -58 44 -25
24 -63 49 -83 56 -20 7 -34 14 -31 17 5 6 -33 39 -74 64 -60 38 -186 58 -238
38 -23 -9 -40 -40 -50 -94 -6 -33 -6 -519 0 -633 3 -40 1 -75 -4 -78 -5 -3 -5
-11 -1 -17 4 -6 8 -57 10 -112 1 -55 5 -183 7 -285 3 -102 6 -185 6 -185 2 0
7 -100 9 -195 1 -30 -1 -68 -5 -85 -4 -16 -7 -41 -6 -55 2 -51 12 -340 16
-510 3 -96 8 -199 11 -229 5 -44 3 -55 -12 -67 -17 -13 -17 -13 2 -15 11 -1
23 -1 28 0 12 2 8 -27 -4 -31 -7 -2 -11 -34 -11 -88 1 -74 7 -165 12 -165 5 0
17 -96 26 -205 2 -30 6 -61 9 -70 2 -8 7 -31 10 -50 3 -19 10 -46 15 -60 19
-53 29 -150 19 -174 -9 -18 -7 -29 6 -49 15 -24 15 -28 -3 -64 -11 -21 -21
-40 -23 -43 -2 -3 13 -22 34 -43 20 -21 37 -45 37 -52 0 -7 19 -37 43 -67 23
-31 53 -70 67 -88 14 -18 30 -38 35 -44 6 -7 18 -25 27 -41 20 -36 141 -101
184 -100 16 1 41 -5 56 -12 28 -14 52 -46 41 -56 -10 -11 26 -56 56 -71 23
-12 33 -13 55 -3 14 7 26 16 26 20 0 5 4 6 9 2 5 -3 12 -1 16 5 7 12 55 14 55
3 0 -5 16 -19 35 -32 43 -29 86 -26 168 14 88 43 88 43 93 202 2 76 6 154 9
173 3 19 7 56 10 82 3 26 15 80 25 120 11 40 22 84 25 97 3 13 11 34 17 45 7
12 13 26 14 31 3 16 43 118 77 197 18 42 7 58 -20 30 -43 -45 -108 -69 -73
-27 7 8 9 15 5 15 -5 0 -1 8 8 18 9 9 21 40 27 67 6 28 17 55 24 60 7 6 23 29
36 52 25 45 40 48 40 7 0 -38 21 -25 50 32 55 107 240 532 240 552 0 2 5 0 10
-3 6 -3 10 0 11 7 3 48 27 115 45 122 13 5 42 58 45 83 1 5 5 18 10 29 11 31
1 36 -24 13 -25 -23 -47 -25 -47 -4 0 8 5 15 10 15 6 0 10 5 10 10 0 11 79 91
81 81 1 -3 1 -9 0 -13 -2 -14 16 -8 30 10 25 30 49 79 42 86 -3 3 -2 6 4 6 12
0 13 7 16 131 2 100 2 101 35 130 26 23 40 29 63 25 27 -4 32 1 62 52 18 32
45 83 61 115 16 32 48 79 72 104 24 25 41 49 38 54 -4 8 61 159 70 159 1 0 3
-6 4 -12 0 -7 3 -31 6 -53 3 -22 8 -69 11 -104 3 -35 9 -69 15 -76 6 -7 4 -28
-6 -60 -8 -28 -16 -75 -18 -107 -2 -31 -6 -60 -8 -65 -7 -13 -2 -175 6 -215 5
-21 12 -38 18 -38 5 0 7 3 5 8 -3 4 3 27 13 52 18 43 19 44 28 21 6 -16 5 -46
-3 -86 -12 -68 -20 -85 -39 -85 -24 0 -38 -58 -41 -164 -1 -57 -6 -109 -9
-115 -4 -6 -2 -11 4 -11 6 0 9 -4 5 -9 -3 -6 -8 -50 -10 -98 -3 -48 -8 -119
-11 -158 -3 -38 -7 -117 -9 -175 -13 -421 -24 -582 -39 -598 -9 -9 22 -57 74
-112 45 -48 81 -99 80 -115 0 -3 1 -8 1 -12 1 -5 1 -15 0 -24 -1 -9 14 -32 34
-51 19 -19 37 -44 40 -56 5 -26 33 -68 69 -101 21 -20 32 -23 71 -18 41 4 47
2 55 -17 4 -11 20 -32 35 -46 22 -21 36 -25 86 -25 50 0 59 -3 59 -18 0 -37
29 -87 57 -98 35 -14 71 -22 102 -23 29 -1 36 27 15 60 -15 22 -15 23 27 26
37 3 44 7 49 28 7 31 40 40 40 11 0 -15 5 -19 22 -16 12 3 25 10 29 17 6 9 11
9 22 0 27 -22 46 16 52 104 15 226 13 209 60 350 21 60 38 114 39 119 1 6 12
33 25 60 13 28 24 55 25 60 7 30 18 55 26 55 5 0 14 19 21 42 6 23 17 51 24
61 13 19 10 47 -5 47 -5 0 -14 -16 -20 -36 -7 -19 -18 -38 -25 -41 -8 -2 -11
-11 -8 -19 4 -10 -2 -17 -16 -21 -12 -3 -24 -16 -27 -32 -9 -40 -26 -81 -36
-87 -6 -4 -8 1 -4 12 7 23 17 75 18 92 1 6 5 12 10 12 4 0 7 3 6 8 -4 11 41
119 81 192 52 97 71 138 71 150 0 16 18 12 39 -11 26 -28 33 -10 18 42 -20 67
4 129 55 142 18 5 20 2 15 -28 -4 -27 -3 -33 9 -28 8 3 14 10 14 16 0 6 6 18
14 26 8 9 38 61 67 116 28 55 60 116 71 135 10 19 18 40 18 47 0 7 3 13 8 13
4 0 18 24 32 53 13 28 32 64 43 80 10 15 15 27 10 27 -4 0 -3 4 3 8 15 9 129
193 156 249 32 69 1 110 -45 58 -17 -20 -17 -19 -12 12 3 18 14 49 25 69 24
42 102 148 113 152 4 2 7 9 7 16 0 6 12 26 28 44 45 53 72 90 72 100 0 5 9 17
20 27 11 10 20 24 20 32 0 7 4 13 10 13 16 0 51 44 45 58 -6 17 19 89 39 110
9 9 51 54 93 99 71 73 154 189 193 268 8 17 28 42 45 57 16 16 38 35 48 45 9
9 17 12 18 7 0 -5 3 -20 5 -34 8 -43 10 -314 3 -341 -4 -14 -2 -33 3 -42 5
-10 5 -17 1 -17 -10 0 -10 -671 0 -687 4 -6 3 -14 -3 -18 -6 -4 -7 -11 -4 -17
3 -5 8 -58 10 -116 2 -59 6 -134 8 -167 3 -33 8 -100 11 -150 4 -49 11 -98 16
-108 6 -10 12 -42 13 -71 2 -29 7 -67 10 -84 4 -17 9 -50 11 -74 1 -24 5 -50
8 -58 3 -8 9 -37 13 -65 9 -59 8 -57 24 -115 14 -50 25 -69 76 -125 20 -22 63
-87 96 -145 32 -58 62 -112 67 -120 5 -8 14 -27 21 -41 7 -15 22 -31 34 -37
28 -13 119 -8 124 6 2 6 12 2 23 -9 10 -10 26 -19 35 -19 17 0 16 -14 -2 -77
-10 -37 32 -30 51 7 9 17 20 30 26 30 6 0 25 14 42 31 l31 31 28 -31 c43 -48
50 -42 63 44 3 21 10 42 15 45 11 7 -1 25 -17 25 -7 0 -13 4 -13 9 -1 16 31
16 55 0 26 -17 35 -9 53 44 8 23 8 32 0 32 -6 0 -8 3 -5 6 3 4 2 14 -3 24 -5
9 -10 86 -11 170 -1 117 -4 157 -15 167 -11 11 -11 19 -3 35 11 20 12 20 34
-8 l23 -29 -4 90 c-3 50 -6 107 -7 128 -1 20 2 37 7 37 4 0 4 6 -1 13 -5 6
-11 50 -12 97 -2 47 -4 117 -7 155 -2 39 -6 140 -9 225 -3 85 -8 193 -11 240
-2 47 -6 326 -8 620 -2 294 -7 546 -10 560 -4 14 -9 43 -11 64 -9 77 -50 183
-117 300 -37 66 -66 121 -64 123 6 6 46 -20 46 -29 0 -5 5 -8 12 -8 6 0 21 -9
32 -19 24 -22 195 -110 226 -116 11 -2 26 -7 33 -12 39 -24 91 -26 117 -3 53
46 96 89 115 115 11 16 26 34 33 41 6 7 12 17 12 22 0 6 4 12 8 14 10 4 142
183 142 192 0 4 23 40 50 81 28 41 50 78 50 83 0 4 8 17 18 28 9 10 44 60 76
109 33 50 74 109 90 131 17 23 40 54 51 70 40 56 165 219 190 248 25 29 141
162 150 172 97 106 196 213 220 238 29 30 164 182 195 219 8 11 27 33 42 50
15 18 41 58 58 90 27 52 43 74 100 136 27 29 62 81 64 96 4 25 16 30 74 32 31
0 62 2 68 2 7 1 9 18 6 49 l-4 48 43 19 c59 25 99 54 96 67 -1 6 13 15 32 20
18 5 52 28 75 51 48 49 136 156 136 165 0 16 82 92 105 98 13 3 45 4 69 2 l45
-3 -20 21 c-23 25 -24 43 -1 70 23 28 118 97 162 118 19 9 64 43 99 77 74 69
104 75 109 22 2 -17 -2 -51 -9 -75 -7 -24 -13 -45 -14 -48 0 -3 -5 -14 -11
-25 -6 -11 -21 -51 -34 -90 -12 -38 -26 -80 -31 -93 -5 -13 -9 -30 -9 -39 0
-9 -27 -69 -59 -133 -32 -64 -73 -158 -91 -210 -18 -56 -42 -106 -57 -122 -15
-16 -23 -28 -19 -28 5 0 3 -6 -3 -13 -6 -8 -8 -16 -5 -19 15 -16 -56 -191
-110 -271 -14 -21 -26 -40 -26 -43 0 -5 -17 -27 -42 -52 -9 -9 -23 -35 -31
-57 -19 -51 -29 -79 -27 -83 0 -1 -7 -16 -15 -32 -8 -16 -16 -33 -16 -37 -1
-5 -5 -17 -9 -28 -29 -74 -51 -127 -74 -177 -14 -31 -26 -59 -26 -61 0 -3 -8
-22 -17 -43 -9 -22 -17 -41 -18 -44 -3 -9 -25 -65 -35 -85 -5 -11 -14 -37 -20
-58 -7 -21 -19 -41 -29 -45 -22 -8 -34 -25 -80 -117 -46 -91 -134 -277 -135
-285 -3 -15 -82 -166 -91 -172 -5 -4 -6 -8 -2 -8 8 0 -35 -83 -57 -109 -6 -8
-10 -16 -8 -18 7 -8 -11 -73 -21 -73 -6 0 -8 -3 -4 -6 3 -3 -14 -36 -37 -72
-78 -122 -112 -186 -141 -262 -15 -41 -38 -86 -50 -100 -14 -15 -25 -43 -28
-67 -3 -31 -13 -50 -40 -75 -23 -22 -39 -49 -46 -78 -16 -64 -75 -180 -115
-223 -31 -34 -116 -193 -116 -217 0 -5 -4 -10 -10 -10 -5 0 -10 -7 -10 -17 0
-21 -74 -156 -110 -203 -23 -29 -37 -73 -40 -122 0 -5 -9 -8 -19 -8 -22 0 -34
-22 -37 -65 -3 -50 -11 -82 -28 -107 -9 -13 -24 -49 -35 -79 -22 -65 -57 -137
-79 -161 -8 -10 -16 -35 -18 -55 -2 -21 -8 -39 -14 -41 -5 -2 -10 -9 -10 -15
0 -7 -13 -40 -30 -74 -16 -35 -26 -63 -22 -63 4 0 2 -4 -4 -8 -10 -6 -114
-214 -114 -226 0 -3 -20 -35 -44 -70 -60 -88 -126 -222 -126 -257 0 -17 -9
-36 -21 -47 -11 -9 -30 -25 -41 -34 -12 -10 -23 -37 -28 -70 -14 -94 -34 -147
-68 -184 -23 -25 -66 -123 -87 -199 -10 -33 -21 -64 -25 -70 -4 -5 -17 -37
-30 -70 -13 -33 -36 -81 -52 -106 -15 -25 -28 -51 -28 -58 0 -6 -4 -11 -8 -11
-8 0 -16 -18 -58 -130 -28 -74 -35 -108 -38 -165 -1 -22 -12 -59 -24 -82 -12
-24 -20 -43 -17 -43 3 0 1 -10 -6 -21 -6 -12 -13 -36 -16 -53 -3 -17 -10 -37
-15 -43 -6 -7 -8 -13 -5 -13 3 0 2 -14 -4 -32 -5 -17 -11 -57 -14 -87 -3 -31
-16 -108 -29 -171 -18 -90 -22 -141 -20 -235 2 -66 5 -130 8 -142 4 -13 8 -32
11 -44 8 -36 43 -103 72 -135 77 -86 103 -118 103 -124 0 -12 94 -95 120 -106
14 -6 50 -11 80 -10 53 1 55 2 53 28 -1 15 5 29 12 32 18 6 56 -40 48 -60 -3
-8 1 -14 10 -14 8 0 17 7 21 15 3 8 15 15 26 15 11 0 20 5 20 10 0 34 68 -12
75 -50 11 -60 85 -73 170 -29 33 17 78 76 69 90 -3 5 -1 9 4 9 5 0 9 6 9 13 1
37 15 102 33 154 29 82 29 88 -3 91 -31 4 -45 24 -51 75 -7 55 -16 76 -36 87
-10 5 -17 18 -15 27 2 10 4 18 5 18 1 0 4 11 6 25 8 45 61 146 93 179 17 17
31 37 31 44 0 7 5 18 12 25 6 6 17 26 24 44 6 18 25 65 42 103 28 67 39 94 40
105 1 3 8 22 17 42 8 21 12 38 8 38 -5 0 -2 4 5 8 7 5 15 39 19 77 l6 68 -32
-5 c-36 -5 -35 -10 -18 89 7 38 33 68 62 71 15 1 30 4 35 7 11 7 41 72 46 101
5 27 -3 26 -39 -4 -9 -8 -20 -13 -23 -9 -7 6 43 155 59 175 5 6 6 12 2 12 -4
0 -3 6 2 13 22 27 35 150 22 199 -8 29 13 64 31 53 5 -3 19 -1 33 4 17 7 23
16 22 33 -1 12 7 31 17 42 11 10 41 62 66 115 26 53 50 99 55 102 5 3 8 9 8
13 -1 3 17 44 39 91 43 91 48 116 25 135 -37 31 -4 116 56 141 45 18 92 72
134 154 20 38 40 74 44 80 15 18 30 75 25 89 -3 8 -23 26 -45 41 l-40 26 5
-43 c8 -53 -8 -75 -82 -112 -56 -29 -69 -46 -77 -103 -11 -75 -16 -89 -41
-118 -14 -17 -34 -46 -45 -66 -10 -21 -24 -43 -31 -51 -37 -39 -69 -105 -74
-150 -5 -40 -11 -53 -56 -128 -11 -19 -22 -48 -23 -65 -2 -16 -3 -35 -4 -41
-1 -6 -21 -31 -45 -55 -23 -24 -44 -47 -45 -51 0 -5 -1 -9 -2 -10 0 -2 -2 -21
-4 -44 -3 -41 -42 -144 -54 -144 -12 0 -61 -106 -62 -136 -1 -16 -8 -56 -16
-89 -26 -104 -73 -144 -109 -90 -13 19 -15 37 -9 85 4 33 7 63 7 67 0 5 3 13
8 18 4 6 10 26 14 46 6 36 29 65 55 71 30 6 61 43 67 77 4 20 8 44 10 54 4 26
-42 70 -67 64 -10 -3 -19 -2 -19 3 0 4 11 10 23 14 25 6 99 65 82 66 -5 0 -4
4 3 9 11 7 9 13 -9 30 l-23 21 35 1 c19 1 37 1 42 0 4 0 7 3 7 9 0 5 6 10 13
10 25 1 49 51 51 108 2 51 4 56 29 65 50 16 104 166 78 215 -9 17 -4 26 33 59
50 44 73 77 80 115 6 38 14 48 35 48 26 0 30 8 20 43 -10 34 5 58 50 80 32 16
37 33 12 40 -18 4 -19 9 -11 37 5 18 15 42 23 54 36 56 21 95 -28 70 -27 -14
-70 -5 -46 10 6 4 11 16 11 26 0 10 3 20 8 22 4 2 25 38 47 81 21 43 44 82 51
88 25 20 32 0 18 -48 -17 -58 -17 -63 1 -63 25 0 100 121 110 181 6 33 -10 89
-26 89 -5 0 -12 0 -16 0 -8 0 -9 -4 -12 -35 -1 -16 -26 -21 -36 -6 -3 5 -7 35
-10 65 -4 59 -11 80 -24 71 -5 -2 -13 7 -19 20 -6 13 -8 26 -4 28 4 2 63 5
132 6 68 1 127 4 130 7 3 3 10 20 16 37 6 18 22 37 35 44 13 7 25 23 26 35 4
39 9 57 16 64 4 4 7 15 7 24 0 10 6 23 14 29 16 13 27 58 30 115 1 31 6 41 25
47 12 5 26 7 29 6 9 -5 36 25 40 44 2 7 5 40 7 72 2 40 8 62 20 70 15 12 14
15 -11 40 -15 15 -23 27 -18 28 30 2 49 9 52 18 2 6 10 11 18 11 9 0 13 4 10
8 -2 4 -1 14 4 22 5 9 5 19 -1 26 -6 8 -6 14 0 18 5 3 7 16 3 28 l-5 22 23
-22 c26 -24 41 -28 37 -10 -1 7 14 14 38 18 51 7 61 14 81 53 12 23 15 45 10
90 l-6 59 39 15 c26 10 38 20 34 29 -3 8 0 21 7 29 7 8 9 15 5 15 -4 0 3 9 16
19 13 11 21 23 17 26 -10 11 -96 7 -138 -5 -41 -12 -97 -13 -102 -2 -1 4 -15
14 -30 22 -31 17 -36 34 -11 37 10 0 59 4 108 8 102 7 104 7 162 24 50 14 83
45 83 79 0 23 28 82 40 82 3 0 14 7 24 15 19 14 19 15 -2 34 -29 24 -28 28 8
36 29 6 33 12 33 48 0 10 9 23 21 28 37 17 67 73 70 130 3 38 9 56 22 65 41
28 74 67 97 114 21 42 22 41 -7 36 -14 -2 -32 1 -41 8 -15 11 -15 13 2 28 10
9 34 20 53 23 49 9 53 16 36 64 -13 38 -13 43 2 48 20 8 36 32 37 55 0 9 17
40 39 68 35 46 38 55 38 113 0 57 2 64 29 87 17 14 31 32 33 40 5 31 27 59 48
62 19 3 23 9 23 48 0 25 9 63 20 85 19 39 139 204 158 216 5 3 8 9 8 12 0 4
10 24 22 44 12 21 22 41 22 46 0 4 4 6 10 5 16 -5 5 -38 -41 -129 -24 -47 -45
-94 -47 -105 -1 -10 -6 -25 -10 -31 -5 -7 -5 -13 -2 -13 4 0 -7 -25 -25 -57
-31 -54 -39 -79 -45 -133 -2 -14 -4 -25 -5 -25 -1 0 -4 -13 -6 -28 -5 -30 -12
-41 -56 -88 -24 -26 -30 -28 -47 -17 -27 16 -32 9 -37 -54 -6 -65 -21 -114
-45 -149 -23 -32 -29 -75 -11 -72 19 4 15 -2 -23 -40 -19 -19 -35 -41 -35 -49
-1 -17 -28 -72 -62 -124 -26 -41 -50 -108 -41 -117 9 -9 -36 -82 -74 -121 -21
-21 -52 -45 -70 -52 -29 -12 -31 -17 -29 -56 3 -46 -30 -119 -83 -188 -28 -36
-29 -43 -16 -73 10 -24 -20 -95 -79 -182 -26 -38 -49 -81 -52 -95 -4 -14 -16
-34 -29 -45 -13 -11 -26 -36 -29 -58 -7 -47 -16 -64 -74 -145 -36 -51 -42 -66
-31 -73 8 -5 19 -9 25 -9 6 0 17 -7 24 -15 10 -12 10 -15 -2 -15 -8 0 -37 -7
-65 -15 -54 -16 -63 -29 -69 -103 -1 -19 -25 -72 -53 -119 -28 -46 -51 -87
-51 -90 0 -9 -53 -117 -61 -123 -8 -6 -29 -46 -29 -56 0 -3 6 -1 13 5 22 17
28 1 11 -30 -8 -16 -15 -32 -15 -36 0 -5 -7 -15 -14 -23 -7 -8 -16 -27 -20
-42 -6 -25 -5 -26 18 -20 46 13 89 59 161 175 44 71 87 109 104 92 3 -3 2 -5
-2 -5 -4 0 -2 -9 4 -20 6 -11 16 -20 22 -20 17 0 37 32 38 59 0 23 -1 23 -25
7 -23 -15 -26 -15 -31 -1 -4 8 -1 34 5 58 6 23 13 49 16 57 7 27 64 160 102
238 54 112 81 142 126 142 56 1 101 40 132 114 19 46 5 46 -30 1 -26 -32 -62
-52 -94 -51 -20 1 -24 21 -9 38 7 7 14 20 16 28 4 17 38 64 99 137 31 37 48
50 62 46 13 -3 17 -11 14 -26 -4 -16 8 -8 44 29 27 29 49 63 50 76 3 32 109
239 206 405 44 73 81 148 84 170 3 21 15 48 27 60 29 29 211 401 204 416 0 1
8 20 19 42 18 35 83 209 83 221 0 9 -55 -10 -68 -23 -15 -15 -38 -17 -46 -4
-3 5 5 24 18 42 46 65 114 176 120 197 4 12 21 26 41 32 29 10 35 16 35 41 0
23 6 31 34 43 52 22 88 91 56 111 -13 8 -13 48 1 78 6 13 28 34 49 47 21 13
44 34 51 47 7 13 16 23 20 23 5 0 18 19 30 43 12 23 24 44 28 47 3 3 7 10 8
15 2 6 16 46 32 90 30 83 28 125 -3 125 -31 0 4 52 38 58 22 4 48 33 73 82 10
19 21 37 26 38 4 2 7 10 7 18 0 9 10 34 23 57 29 53 86 223 91 274 2 21 9 65
16 98 7 33 13 65 14 70 1 6 4 15 8 20 3 6 9 26 12 45 3 19 13 57 21 84 33 106
36 286 7 398 -16 60 -67 160 -102 198 -18 19 -74 79 -124 134 -118 128 -126
135 -160 153 -36 19 -43 24 -119 96 -72 68 -130 104 -172 109 -16 2 -50 12
-74 24 -54 25 -150 29 -231 9z m-390 -1064 c0 -5 -19 -26 -42 -45 -64 -55 -94
-45 -42 14 23 25 35 31 77 39 4 0 7 -3 7 -8z m-140 -136 c0 -18 -4 -23 -15
-19 -15 6 -20 35 -9 47 12 11 24 -3 24 -28z m-57 -49 c15 -11 15 -15 3 -25
-17 -14 -66 -4 -66 13 0 28 33 34 63 12z m-1510 -596 c5 -19 -15 -50 -33 -50
-18 0 -18 32 0 50 25 25 26 25 33 0z m2487 -150 c-12 -17 -26 -28 -30 -25 -10
6 28 55 42 55 5 0 0 -14 -12 -30z m236 -28 c15 -10 -1 -52 -20 -52 -19 0 -29
29 -15 46 13 16 19 17 35 6z m-252 -70 c-13 -19 -42 -23 -62 -8 -10 7 -7 14
15 32 25 20 30 21 43 8 11 -11 12 -19 4 -32z m196 -67 c0 -21 -31 -95 -40 -95
-4 0 -12 -10 -18 -22 -10 -21 -11 -20 -8 12 5 56 36 120 57 120 5 0 9 -7 9
-15z m-260 -60 c0 -8 -4 -15 -10 -15 -5 0 -10 -5 -10 -11 0 -22 -33 -80 -52
-90 -14 -7 -23 -7 -34 2 -30 24 5 90 61 115 39 17 45 17 45 -1z m-555 -895 c0
-19 -22 -20 -57 -3 -39 19 -35 24 15 21 29 -2 42 -8 42 -18z m351 5 c-3 -8 -1
-15 3 -15 5 0 4 -18 -1 -39 -10 -38 -41 -61 -54 -40 -3 5 -9 7 -14 4 -14 -9
-40 6 -39 24 0 9 18 31 41 49 43 34 74 43 64 17z m-131 -146 c60 -28 58 -55
-12 -184 -8 -16 -29 -57 -46 -90 -16 -33 -35 -63 -41 -67 -6 -4 -8 -8 -4 -8
10 0 -80 -169 -102 -191 -8 -9 -26 -20 -39 -24 l-25 -7 23 33 c12 19 38 68 57
109 55 118 57 122 93 185 19 33 38 62 42 65 17 12 69 124 61 132 -5 5 -19 11
-33 14 -13 3 -28 6 -34 7 -22 5 -34 18 -28 32 7 21 35 19 88 -6z m-4407 -284
c3 -11 1 -17 -3 -13 -4 4 -19 -7 -33 -24 -23 -28 -27 -29 -33 -12 -7 20 6 53
25 66 18 13 41 4 44 -17z m-2483 -118 c-31 -18 -85 -36 -79 -25 8 12 64 37 84
37 11 0 9 -3 -5 -12z m-101 -226 c3 -4 -1 -17 -9 -27 -14 -18 -14 -18 -15 9 0
26 13 36 24 18z m6732 -73 c-13 -21 -27 -23 -44 -6 -9 9 -6 18 16 41 l27 28 6
-23 c3 -13 1 -31 -5 -40z m-931 -28 c-3 -5 -13 -10 -21 -10 -8 0 -14 5 -14 10
0 6 9 10 21 10 11 0 17 -4 14 -10z m-3621 -34 c-3 -9 -10 -16 -15 -16 -14 0
-11 28 4 33 16 6 19 3 11 -17z m4106 -17 c0 -25 -30 -39 -83 -39 -65 0 -78 43
-17 55 12 2 24 6 26 8 2 2 19 1 39 -1 26 -3 35 -9 35 -23z m-389 -46 c-11 -7
-38 -16 -60 -18 -41 -4 -62 7 -39 21 18 11 80 21 101 16 17 -4 16 -6 -2 -19z
m-3135 -45 c-19 -27 -21 -10 -4 28 10 21 14 24 16 11 2 -9 -4 -27 -12 -39z
m3837 -5 c17 -3 27 -11 27 -22 0 -20 -48 -87 -67 -95 -15 -6 -33 25 -39 67 -6
49 15 62 79 50z m-3814 -104 c-19 -12 -24 -2 -8 17 9 11 14 13 17 4 3 -7 -2
-16 -9 -21z m144 -4 c-5 -13 -23 -22 -23 -11 0 15 14 35 21 31 4 -3 6 -12 2
-20z m72 -7 c9 -40 -4 -71 -40 -98 -19 -14 -20 -14 -2 6 20 24 22 55 5 72 -8
8 -8 15 2 27 18 21 29 19 35 -7z m-468 -23 c0 -8 -4 -12 -9 -9 -4 3 -8 9 -8
15 0 5 4 9 8 9 5 0 9 -7 9 -15z m3571 -42 c2 -8 -6 -13 -22 -13 -25 0 -33 10
-19 24 10 10 36 3 41 -11z m-3206 -22 c-7 -68 -142 -113 -184 -61 -21 26 -15
44 10 31 60 -31 70 -33 91 -22 18 10 42 43 47 64 1 4 2 10 3 13 0 3 9 4 19 2
11 -3 16 -12 14 -27z m3077 -9 c7 -14 5 -23 -9 -35 -18 -15 -20 -15 -30 3 -7
14 -6 23 6 34 20 20 21 20 33 -2z m-3495 -48 c22 -9 10 -23 -14 -17 -11 3 -17
9 -14 14 6 11 8 11 28 3z m3469 -55 c-6 -6 -17 -8 -24 -3 -9 5 -8 9 7 14 23 9
31 3 17 -11z m-3213 -38 c0 -6 -5 -13 -11 -17 -6 -3 -9 -19 -7 -35 6 -38 -13
-33 -24 6 -4 18 -3 34 4 42 12 15 38 17 38 4z m2856 -88 c-3 -8 -6 -17 -6 -20
0 -3 -6 0 -14 7 -18 14 -10 41 10 33 9 -3 13 -12 10 -20z m-2958 -90 c-2 -9
-8 -18 -15 -20 -7 -3 -9 3 -6 16 6 25 26 28 21 4z m-838 -33 c-6 -11 -15 -18
-21 -14 -6 4 -6 11 2 20 17 21 31 17 19 -6z m955 0 c-3 -5 -11 -10 -16 -10 -6
0 -7 5 -4 10 3 6 11 10 16 10 6 0 7 -4 4 -10z m-229 -35 c2 -10 -6 -27 -18
-37 -11 -9 -18 -24 -15 -32 3 -8 2 -16 -3 -18 -4 -2 -2 -20 5 -42 16 -47 14
-55 -29 -83 -33 -21 -34 -21 -39 -2 -4 16 -9 18 -30 10 -34 -13 -60 13 -33 32
9 7 18 19 20 27 6 37 19 56 48 75 18 11 41 37 52 58 21 39 37 44 42 12z m87
18 c8 -14 -12 -53 -27 -53 -12 0 -12 5 -3 30 11 30 22 37 30 23z m-1149 -108
c3 -8 1 -15 -3 -15 -5 0 -11 7 -15 15 -3 8 -1 15 3 15 5 0 11 -7 15 -15z m884
3 c-3 -7 -13 -15 -24 -17 -16 -3 -17 -1 -5 13 16 19 34 21 29 4z m-874 -86 c2
-4 -2 -15 -9 -25 -15 -20 -28 -8 -19 17 7 17 20 21 28 8z m2457 -8 c9 -11 10
-20 2 -32 -15 -25 -28 -16 -29 18 0 34 7 38 27 14z m-3484 -20 c-9 -9 -28 6
-21 18 4 6 10 6 17 -1 6 -6 8 -13 4 -17z m1652 -35 c-12 -22 -29 -16 -29 10 0
25 11 33 26 20 10 -8 11 -16 3 -30z m-88 -22 c-13 -13 -26 -3 -16 12 3 6 11 8
17 5 6 -4 6 -10 -1 -17z m3636 -1 c-5 -16 -52 -30 -73 -22 -18 7 -18 8 3 25
24 20 77 17 70 -3z m-3227 -77 c-6 -10 -15 -19 -20 -19 -18 0 -28 34 -18 60
l9 25 20 -23 c14 -18 16 -28 9 -43z m77 31 c-1 -20 -17 -27 -30 -13 -8 7 11
33 24 33 4 0 7 -9 6 -20z m-2155 -75 c6 -29 2 -35 -24 -35 -12 0 -18 7 -18 23
0 43 35 53 42 12z m3610 -65 c-7 -47 -22 -35 -22 18 1 41 2 45 14 30 7 -10 11
-31 8 -48z m-1917 -30 c-10 -11 -21 -18 -23 -15 -3 3 3 12 14 20 27 20 30 18
9 -5z m-115 -21 c0 -12 -27 -11 -35 1 -11 17 5 32 21 19 8 -6 14 -15 14 -20z
m-220 6 c0 -8 -4 -15 -9 -15 -13 0 -22 16 -14 24 11 11 23 6 23 -9z m3958 -4
c-13 -21 -28 -19 -28 5 0 8 9 14 20 14 17 0 19 -3 8 -19z m-5008 -48 c-5 -20
-7 -41 -4 -45 3 -4 0 -8 -7 -8 -8 0 -9 10 -5 31 3 17 6 40 6 51 0 10 4 17 9
14 5 -4 5 -22 1 -43z m1490 -9 c-9 -26 -15 -33 -23 -25 -8 8 -6 21 7 48 22 45
33 29 16 -23z m70 36 c10 -6 12 -12 5 -19 -7 -7 -14 -4 -23 9 -13 21 -6 25 18
10z m-567 -45 c-3 -9 -8 -14 -10 -11 -3 3 -2 9 2 15 9 16 15 13 8 -4z m3572
-52 c-23 -55 -51 -87 -67 -77 -4 3 -8 9 -8 13 0 7 80 101 87 101 2 0 -4 -17
-12 -37z m-3305 -7 c-14 -14 -22 -2 -14 18 5 14 9 15 15 4 4 -7 4 -17 -1 -22z
m-2715 6 c0 -18 -20 -15 -23 4 -3 10 1 15 10 12 7 -3 13 -10 13 -16z m2845
-133 c0 -11 -4 -18 -9 -15 -10 6 -34 -18 -26 -26 3 -3 -1 -11 -10 -18 -21 -18
-19 1 7 49 22 41 38 45 38 10z m176 0 c19 -21 19 -21 -8 -8 -15 6 -25 16 -22
20 7 12 8 12 30 -12z m3174 11 c0 -5 -12 -10 -26 -10 -14 0 -23 4 -19 10 3 6
15 10 26 10 10 0 19 -4 19 -10z m-184 -58 c2 -27 -18 -34 -50 -19 -30 14 -32
20 -11 41 21 20 60 6 61 -22z m-3396 13 c0 -8 -7 -15 -15 -15 -16 0 -20 12 -8
23 11 12 23 8 23 -8z m473 -81 c-69 -140 -145 -250 -164 -238 -8 5 107 240
135 275 17 22 23 25 34 14 11 -10 11 -19 -5 -51z m-143 41 c7 -4 7 -14 0 -45
0 -3 -6 2 -13 10 -7 9 -28 24 -47 33 l-35 18 43 -5 c24 -3 47 -8 52 -11z
m-340 -24 c12 -24 13 -31 1 -31 -15 0 -42 31 -36 41 10 15 24 10 35 -10z
m-1681 -48 c2 -2 -5 -3 -17 -3 -14 0 -22 6 -22 16 0 14 3 15 18 3 9 -7 19 -15
21 -16z m1796 -42 c3 -6 -4 -15 -15 -21 -20 -11 -21 -10 -10 9 12 23 16 25 25
12z m165 -19 c0 -15 -2 -15 -10 -2 -13 20 -13 33 0 25 6 -3 10 -14 10 -23z
m-1456 -186 c-1 -83 -5 -160 -8 -171 -2 -11 -5 -23 -5 -27 -1 -5 -6 -8 -11 -8
-7 0 -9 43 -5 128 2 70 5 152 6 182 1 30 4 59 6 64 15 24 20 -32 17 -168z
m1221 102 c-6 -31 -42 -74 -53 -64 -4 5 49 96 56 96 2 0 1 -15 -3 -32z m3173
-13 c-6 -14 -17 -25 -24 -25 -9 0 -9 7 3 30 17 36 37 31 21 -5z m-3358 10 c0
-8 -4 -15 -9 -15 -5 0 -11 7 -15 15 -3 9 0 15 9 15 8 0 15 -7 15 -15z m-82
-75 c-7 -11 -15 -15 -17 -9 -2 6 3 15 10 20 20 12 21 11 7 -11z m523 -24 c0
-6 2 -22 4 -36 4 -32 -20 -70 -45 -70 -23 0 -35 17 -23 33 5 7 15 31 23 54 8
28 17 40 26 36 8 -3 14 -10 15 -17z m2829 -117 c-14 -32 -37 -55 -47 -46 -6 6
17 78 40 126 12 24 12 23 15 -14 2 -20 -2 -50 -8 -66z m-3085 61 c-6 -9 -9 -9
-16 1 -10 17 0 34 13 21 6 -6 7 -16 3 -22z m115 10 c0 -11 -2 -20 -4 -20 -2 0
-11 -3 -20 -6 -11 -4 -16 0 -16 14 0 18 11 29 33 31 4 1 7 -8 7 -19z m-2020
-68 c0 -5 -7 -15 -15 -22 -23 -19 -37 0 -29 39 7 32 7 32 25 12 11 -11 19 -24
19 -29z m5382 3 c-6 -34 -12 -32 -12 6 0 16 4 28 9 25 4 -3 6 -17 3 -31z
m-184 -35 c4 -26 -12 -40 -39 -33 -18 5 -21 26 -6 50 12 19 42 8 45 -17z
m-3113 -6 c0 -10 -8 -20 -18 -22 -16 -3 -17 4 -8 46 3 13 26 -8 26 -24z m-325
-13 c0 -27 -17 -35 -23 -11 -5 19 0 30 15 30 4 0 8 -9 8 -19z m140 -1 c0 -11
-4 -20 -10 -20 -5 0 -10 2 -10 4 0 2 -3 11 -6 20 -4 11 -1 16 10 16 9 0 16 -8
16 -20z m3398 -3 c6 -7 7 -19 3 -26 -7 -11 -12 -10 -30 0 -11 8 -21 19 -21 26
0 17 35 17 48 0z m-3478 -36 c0 -5 -6 -14 -14 -20 -10 -9 -15 -8 -19 3 -3 8
-1 17 6 20 19 7 27 7 27 -3z m225 -67 c-4 -45 -39 -109 -56 -99 -16 10 -9 50
22 132 15 40 38 18 34 -33z m-172 30 c3 -3 3 -13 0 -21 -5 -12 -7 -12 -14 -1
-15 23 -4 40 14 22z m-157 -21 c-3 -10 -8 -31 -10 -48 -3 -16 -15 -42 -26 -57
-11 -15 -20 -34 -20 -43 0 -8 -2 -15 -4 -15 -2 0 -11 -3 -20 -6 -22 -9 -21 51
2 92 36 67 91 121 78 77z m-1050 -30 c11 -27 9 -63 -5 -63 -12 0 -29 51 -24
68 6 17 20 15 29 -5z m4226 -7 c3 -14 1 -31 -3 -38 -9 -14 -11 -9 -14 35 -2
34 11 36 17 3z m-5027 -52 c1 -25 -42 -108 -66 -130 -17 -15 -19 -15 -19 -1 0
9 5 19 10 22 6 4 8 10 5 14 -2 5 2 17 10 27 8 10 15 24 15 31 0 6 5 24 10 38
11 30 35 29 35 -1z m-245 -129 c0 -8 -4 -15 -9 -15 -5 0 -14 7 -21 15 -10 13
-9 15 9 15 12 0 21 -6 21 -15z m1990 -5 c-6 -11 -15 -20 -20 -20 -14 0 -12 27
3 33 23 10 28 7 17 -13z m93 -37 c-10 -29 -14 -34 -24 -28 -5 4 -5 14 1 26 13
24 32 25 23 2z m-1952 -71 c-11 -22 -17 -43 -13 -47 4 -5 2 -5 -5 -1 -12 7
-12 10 8 61 7 17 13 33 14 38 6 20 8 21 12 5 2 -9 -5 -34 -16 -56z m5000 25
c-1 -4 -1 -14 -1 -23 0 -8 -4 -13 -9 -9 -12 7 -10 46 2 42 5 -1 8 -6 8 -10z
m172 -72 c5 -30 -16 -57 -39 -48 -11 4 -14 13 -9 32 14 54 39 62 48 16z m267
7 c0 -13 -36 -43 -42 -36 -4 3 1 14 10 25 17 20 32 25 32 11z m-3576 -37 c-15
-22 -34 -34 -34 -20 0 14 26 45 38 45 9 0 8 -7 -4 -25z m3458 3 c6 -16 -21
-91 -35 -100 -26 -16 -30 69 -5 99 13 16 35 17 40 1z m-187 -127 c2 -52 -7
-59 -30 -25 -14 22 -15 30 -4 50 18 35 32 24 34 -25z m135 -55 c0 -23 -27 -49
-44 -43 -14 6 -15 10 -5 29 20 38 49 46 49 14z m-5536 -28 c-3 -5 -12 -4 -20
3 -7 6 -11 15 -8 21 3 5 12 4 20 -3 7 -6 11 -15 8 -21z m5584 -22 c-11 -25
-38 -43 -38 -26 0 10 36 50 45 50 2 0 0 -11 -7 -24z m-458 -28 c0 -16 -3 -19
-11 -11 -6 6 -8 16 -5 22 11 17 16 13 16 -11z m-740 -33 c0 -2 -7 -5 -15 -9
-9 -3 -15 0 -15 9 0 9 6 12 15 9 8 -4 15 -7 15 -9z m103 -21 c-4 -11 -8 -12
-20 -3 -11 10 -11 14 -1 20 17 10 28 2 21 -17z m-2330 -151 c-9 -13 -17 -23
-19 -23 -2 0 -4 21 -4 46 l0 46 19 -23 c17 -21 17 -25 4 -46z m2865 -21 c4
-26 -26 -42 -38 -22 -9 15 10 52 25 47 5 -2 11 -13 13 -25z m437 -22 c3 -5 -2
-23 -11 -39 -26 -44 -61 -22 -43 27 9 23 43 30 54 12z m-125 -130 c0 -6 -9
-20 -20 -32 -17 -19 -20 -19 -26 -5 -3 10 -4 24 0 32 6 17 46 21 46 5z m-400
-65 c0 -8 -7 -15 -15 -15 -8 0 -15 7 -15 15 0 8 7 15 15 15 8 0 15 -7 15 -15z
m335 -95 c-3 -5 -10 -10 -16 -10 -5 0 -9 5 -9 10 0 6 7 10 16 10 8 0 12 -4 9
-10z m-399 -55 c3 -8 -1 -21 -9 -30 -20 -20 -24 -19 -30 7 -9 32 28 53 39 23z
m369 -56 c-16 -30 -39 -35 -41 -8 -1 21 16 39 37 39 18 0 19 -2 4 -31z m85
-174 c0 -89 -113 -316 -143 -286 -6 6 -3 19 10 38 36 51 37 84 3 63 -7 -4 -19
-6 -26 -3 -19 7 0 41 30 54 27 13 44 38 51 80 15 82 75 126 75 54z m-210 -380
c0 -9 -6 -12 -15 -9 -8 4 -15 10 -15 15 0 5 7 9 15 9 8 0 15 -7 15 -15z m-117
-75 c-8 -29 -29 -44 -36 -26 -4 9 3 22 16 31 27 19 26 19 20 -5z m331 -76 c15
-38 1 -64 -35 -64 -12 0 -11 24 3 55 13 29 23 32 32 9z m-594 -734 c0 -13 -28
-25 -38 -16 -3 4 0 11 8 16 20 13 30 12 30 0z"/>
<path d="M2930 14182 c0 -5 -11 -14 -24 -22 -14 -7 -27 -24 -31 -39 -10 -40
-6 -180 6 -203 6 -11 12 -46 13 -77 1 -31 5 -62 10 -69 14 -22 15 -238 1 -279
-7 -21 -13 -96 -15 -168 -4 -224 -5 -245 -13 -245 -5 0 -6 -4 -3 -9 3 -4 1
-23 -4 -42 -12 -41 -19 -91 -25 -184 -11 -174 -20 -270 -26 -270 -1 0 -2 -14
-3 -30 -1 -17 -4 -35 -7 -40 -2 -6 -4 -58 -4 -117 0 -60 -2 -108 -5 -108 -3 0
-5 -44 -6 -98 0 -53 -3 -132 -7 -175 -6 -75 -6 -78 13 -72 28 9 25 -9 -7 -37
-30 -24 -38 -49 -37 -112 0 -24 6 -43 17 -50 14 -11 14 -15 1 -41 -20 -40 -23
-90 -4 -90 17 -1 15 -23 -5 -45 -8 -8 -16 -37 -19 -63 -3 -26 -8 -68 -11 -94
-4 -25 -11 -56 -17 -67 -6 -12 -12 -23 -12 -26 -2 -10 -35 0 -108 35 -42 19
-79 35 -83 35 -4 0 -21 6 -38 14 -127 54 -228 81 -377 101 -19 2 -47 7 -62 10
-50 10 -88 12 -88 6 0 -10 -70 -34 -115 -39 -22 -2 -47 -7 -55 -11 -8 -4 -37
-9 -63 -10 -50 -3 -125 -31 -166 -63 -14 -10 -43 -27 -66 -37 -36 -16 -220
-141 -235 -160 -3 -3 -23 -19 -45 -35 -61 -44 -113 -103 -126 -144 -6 -20 -16
-43 -22 -49 -5 -7 -6 -13 -1 -13 16 0 -40 -34 -58 -35 -11 -1 -23 5 -28 14 -8
14 -11 14 -19 2 -6 -10 -4 -22 6 -38 13 -20 13 -26 2 -40 -8 -9 -13 -18 -11
-20 1 -1 2 -7 2 -12 0 -15 -51 -9 -57 6 -5 12 -7 12 -14 1 -5 -7 -9 -21 -9
-31 0 -29 -26 -78 -65 -122 -19 -22 -35 -47 -36 -55 -4 -68 -23 -112 -43 -104
-20 8 -65 -51 -59 -76 3 -13 11 -19 19 -16 8 3 14 -1 14 -9 0 -8 -14 -17 -34
-21 -66 -12 -89 -61 -61 -128 7 -16 5 -18 -19 -14 -25 5 -25 4 -11 -12 23 -25
18 -38 -18 -53 -40 -18 -69 -49 -72 -81 -4 -31 -13 -46 -28 -46 -22 0 -39 -38
-27 -60 6 -11 15 -20 20 -20 6 0 10 -5 10 -11 0 -6 -9 -9 -20 -6 -24 6 -28 1
-36 -49 -3 -20 -10 -48 -15 -62 -5 -13 -7 -28 -4 -32 3 -5 -4 -19 -16 -31 -13
-13 -23 -38 -25 -63 -3 -22 -8 -54 -14 -71 -5 -16 -11 -44 -13 -62 -7 -44 -98
-146 -123 -136 -9 3 -14 -2 -14 -16 0 -12 6 -21 14 -21 8 0 13 -8 11 -17 -1
-10 6 -30 16 -44 18 -25 18 -27 0 -46 -10 -11 -24 -36 -32 -56 -12 -34 -11
-38 8 -57 27 -24 20 -55 -17 -77 -16 -9 -33 -27 -40 -41 -16 -37 -31 -225 -18
-238 4 -3 -11 -58 -33 -121 -22 -64 -37 -123 -33 -132 15 -39 22 -71 13 -66
-5 4 -9 13 -9 21 0 8 -4 14 -9 14 -29 0 -34 -72 -9 -122 23 -47 23 -58 -1 -58
-21 0 -45 -23 -34 -33 3 -4 17 -7 30 -7 15 0 23 -6 24 -17 0 -10 2 -62 4 -115
2 -54 6 -102 10 -108 3 -6 -1 -7 -10 -4 -9 4 -14 13 -11 20 6 15 -9 20 -17 6
-5 -7 17 -79 27 -89 3 -4 16 -7 28 -8 14 -1 22 -9 23 -23 1 -12 -2 -22 -7 -22
-5 0 -11 -7 -14 -14 -6 -16 33 -77 105 -166 24 -30 60 -80 79 -110 19 -30 68
-96 109 -147 40 -50 73 -94 73 -97 0 -3 8 -14 18 -25 9 -10 28 -34 42 -52 41
-56 142 -159 191 -194 25 -19 67 -41 95 -50 57 -19 86 -31 214 -93 52 -26 97
-50 98 -54 2 -4 8 -8 14 -8 5 0 22 -8 36 -19 35 -25 125 -51 176 -51 23 -1 55
-7 71 -14 31 -13 85 -4 85 16 0 5 4 7 9 4 5 -4 11 -1 13 5 4 11 11 5 46 -36
12 -14 15 -14 35 0 12 8 32 15 44 15 13 0 29 11 39 25 9 15 26 25 39 25 16 0
25 7 29 25 6 24 7 25 41 11 30 -13 37 -13 49 0 8 8 18 23 21 34 7 22 20 26 30
10 11 -18 21 -10 21 17 -1 16 4 28 11 28 25 0 95 79 87 98 -8 23 34 50 93 59
69 11 76 15 64 37 -7 12 -4 26 11 49 19 31 28 36 56 33 16 -2 16 11 0 28 -11
10 -9 15 8 29 12 9 27 28 34 42 8 14 36 54 65 90 28 36 59 85 69 110 31 78 51
115 64 116 6 1 17 2 22 3 6 0 10 10 10 20 0 26 30 61 57 66 32 6 47 -18 40
-68 -6 -38 -41 -125 -56 -137 -3 -3 -7 -9 -8 -15 -1 -5 -5 -18 -8 -27 -4 -10
-3 -18 2 -18 12 0 53 47 53 60 0 6 5 10 10 10 16 0 11 -43 -9 -69 -16 -21 -16
-27 -5 -62 8 -21 11 -45 8 -54 -4 -10 0 -15 11 -15 9 0 15 -6 12 -12 -2 -8
-17 -12 -35 -10 -32 3 -39 -8 -33 -55 1 -7 -2 -13 -6 -13 -4 0 -14 -4 -22 -9
-12 -7 -10 -14 7 -36 23 -29 21 -45 -4 -45 -9 0 -14 -7 -12 -17 2 -11 12 -18
24 -17 21 0 21 0 4 -30 -10 -17 -16 -44 -14 -61 5 -47 6 -178 1 -200 -3 -11
-1 -42 4 -70 8 -48 14 -90 24 -165 9 -73 27 -115 65 -147 16 -13 30 -32 30
-41 1 -33 106 -106 167 -115 42 -7 48 -11 63 -47 14 -34 18 -35 56 -18 25 12
29 10 59 -25 l33 -38 -3 45 c-3 42 -2 44 16 33 10 -6 19 -15 19 -18 0 -4 16
-14 36 -24 26 -12 41 -29 55 -62 21 -50 22 -50 81 9 26 27 49 31 76 15 6 -5
12 -6 12 -3 0 3 21 -4 46 -14 25 -11 47 -20 48 -20 1 0 9 15 19 33 12 21 32
38 61 50 25 10 55 27 67 38 21 18 22 22 10 52 -7 18 -15 43 -17 57 -12 86 -17
108 -29 135 -8 17 -14 48 -13 70 0 22 -4 58 -10 80 -12 49 -22 126 -27 225 -3
41 -7 102 -10 135 -8 77 -7 99 4 160 5 28 7 68 4 90 -6 52 -6 67 3 145 11 91
11 92 -2 125 -10 24 -9 37 3 68 13 32 14 40 2 47 -7 5 -17 6 -21 4 -11 -7 -10
4 4 29 7 12 13 45 14 73 4 74 11 104 30 125 18 20 11 39 -15 39 -27 0 -42 20
-30 42 16 29 19 135 5 176 -14 43 -14 51 -1 72 16 26 20 54 14 118 -1 9 1 31
5 47 6 26 15 224 19 430 1 39 -1 99 -6 135 -4 36 -9 79 -11 95 -2 17 -7 38
-11 48 -5 12 -3 17 8 17 8 0 18 14 22 33 4 17 9 39 11 47 5 17 11 94 18 215 3
45 8 88 11 96 3 8 -8 36 -25 62 -16 26 -30 50 -30 52 0 3 14 2 30 -2 25 -4 29
-3 24 10 -3 9 4 37 15 62 19 42 19 48 5 62 -9 9 -13 24 -11 34 3 11 1 22 -5
25 -5 3 -7 18 -3 32 3 15 8 40 11 56 3 16 7 33 10 38 3 4 -4 8 -16 8 -19 0
-20 2 -6 28 18 36 33 94 41 162 9 77 26 134 62 203 8 15 11 32 6 40 -4 6 -8
28 -8 47 0 23 -5 34 -13 32 -26 -5 -25 30 2 53 14 12 26 27 26 33 0 6 23 26
50 44 78 51 77 89 -1 102 -23 4 -50 11 -60 17 -22 11 -26 34 -5 26 23 -9 27
18 25 162 -1 130 -10 181 -33 181 -6 0 -1 7 11 15 12 8 23 25 25 37 4 28 38
38 38 11 0 -15 2 -16 10 -3 11 18 13 59 3 61 -5 1 -19 2 -33 3 -56 4 -72 47
-40 108 23 45 18 57 -23 60 -15 1 -27 5 -27 8 1 12 28 39 62 62 25 17 34 29
28 38 -5 8 -5 21 -1 29 6 14 7 48 2 115 -1 19 -1 19 -22 0 l-21 -19 7 40 c4
22 14 52 21 67 12 24 12 28 -4 37 -16 10 -15 13 9 34 36 32 41 50 41 152 1
100 10 145 33 158 16 8 21 57 7 57 -14 0 -52 36 -52 49 0 18 14 13 29 -11 12
-19 14 -20 22 -5 5 9 11 42 14 74 4 66 14 158 19 188 4 25 -11 45 -35 45 -28
0 -23 29 6 36 28 7 28 4 31 104 1 41 5 86 9 100 3 14 9 44 12 67 5 39 4 43
-22 53 -35 13 -25 25 20 22 32 -2 35 0 35 25 0 15 -9 43 -20 61 -12 19 -19 41
-16 50 3 10 7 35 11 57 3 22 8 54 12 70 7 36 8 88 1 132 -3 18 0 44 7 57 9 16
10 26 3 28 -6 2 -11 55 -13 134 -1 98 -6 137 -18 159 -9 17 -24 46 -32 65 -9
19 -37 51 -63 70 -25 19 -67 53 -93 75 -27 23 -81 54 -121 69 -40 16 -140 61
-223 102 -115 56 -157 72 -180 69 -76 -12 -135 -12 -146 2 -13 15 -29 17 -29
5z m25 -822 c-3 -5 -13 -10 -21 -10 -8 0 -12 5 -9 10 3 6 13 10 21 10 8 0 12
-4 9 -10z m-45 -580 c0 -13 -5 -18 -15 -14 -16 7 -19 17 -8 27 12 13 23 7 23
-13z m10 -270 c0 -5 -2 -10 -4 -10 -3 0 -8 5 -11 10 -3 6 -1 10 4 10 6 0 11
-4 11 -10z m-9 -60 c1 -5 2 -16 3 -22 2 -16 -23 -59 -44 -75 -11 -8 -17 -8
-22 0 -4 6 2 17 13 25 11 8 18 19 16 26 -6 16 10 56 23 56 5 0 11 -4 11 -10z
m-33 -185 c1 -21 -16 -48 -19 -28 -6 37 -5 53 5 53 6 0 13 -11 14 -25z m-8
-122 c0 -16 -4 -34 -9 -41 -12 -20 -23 12 -15 44 8 33 24 30 24 -3z m-62 -303
c-7 -11 -16 -20 -21 -20 -4 0 -3 9 3 20 6 11 15 20 20 20 6 0 5 -9 -2 -20z
m26 -366 c7 -19 -1 -34 -19 -34 -21 0 -28 19 -15 35 16 19 26 19 34 -1z m-44
-128 c0 -14 7 -31 15 -40 19 -19 19 -32 0 -40 -16 -6 -46 41 -52 82 -3 17 1
22 17 22 15 0 20 -7 20 -24z m863 -301 c-6 -16 -16 -19 -26 -8 -9 8 13 34 24
28 4 -3 6 -12 2 -20z m-1101 -298 c6 -11 12 -37 15 -56 10 -99 25 -149 48
-159 20 -9 23 -17 20 -59 -2 -26 -13 -67 -25 -91 -11 -23 -23 -55 -26 -72 -4
-16 -13 -35 -20 -41 -8 -6 -11 -15 -9 -20 3 -4 -4 -31 -15 -61 -17 -46 -18
-53 -5 -61 13 -7 9 -15 -22 -42 -21 -19 -38 -37 -38 -42 -1 -14 -27 -87 -35
-98 -10 -14 -31 -80 -37 -118 -2 -18 -22 -72 -44 -120 -21 -49 -40 -96 -41
-105 -2 -9 -6 -19 -9 -22 -7 -6 -53 -101 -55 -115 -1 -5 -5 -25 -8 -44 -9 -44
-33 -101 -43 -101 -10 0 -34 -55 -38 -85 -1 -11 -14 -44 -28 -74 -14 -30 -24
-58 -21 -62 2 -4 -8 -7 -23 -6 -30 2 -30 0 -19 -66 6 -37 -22 -96 -88 -187
-30 -41 -52 -78 -50 -82 3 -4 -2 -23 -10 -42 -8 -19 -12 -37 -8 -40 3 -3 1 -6
-5 -6 -5 0 -18 -28 -28 -62 -10 -35 -28 -73 -41 -85 -13 -12 -24 -25 -24 -29
0 -14 -201 -407 -229 -448 -16 -23 -50 -60 -74 -82 -24 -21 -56 -57 -69 -79
-27 -43 -92 -112 -153 -160 -20 -16 -52 -42 -70 -57 -18 -16 -37 -28 -41 -28
-5 0 -29 -14 -53 -30 -49 -33 -83 -41 -61 -15 16 19 5 32 -30 37 -29 4 -55 50
-69 122 -5 27 -13 51 -18 55 -4 3 -9 17 -9 31 -2 48 -16 215 -20 250 -7 48 -5
93 4 100 9 6 12 21 17 79 2 25 6 60 9 76 2 17 8 55 11 85 3 30 8 62 10 70 2 8
7 38 10 65 9 70 15 114 21 160 4 22 7 50 9 63 2 12 -1 20 -6 16 -5 -3 -7 -9
-4 -14 3 -5 -4 -27 -15 -50 -11 -22 -18 -40 -14 -40 4 0 1 -7 -6 -15 -7 -8 -9
-15 -5 -15 4 0 2 -6 -4 -13 -6 -8 -8 -17 -4 -20 3 -4 1 -7 -5 -7 -6 0 -11 -17
-10 -41 1 -51 -17 -73 -31 -37 -10 26 -5 64 10 84 5 6 6 14 2 17 -3 4 -2 7 4
7 11 0 27 57 27 95 0 11 5 23 11 27 7 5 7 8 -1 8 -12 0 -12 69 0 88 4 7 17 12
30 12 42 0 97 88 110 175 2 17 5 30 6 30 1 0 3 10 6 22 6 36 -24 17 -47 -29
-14 -28 -24 -37 -31 -30 -6 6 -7 18 -3 29 4 10 9 24 11 30 1 7 9 20 18 29 13
13 18 30 16 59 -2 17 37 65 52 65 22 0 22 -4 2 -25 -12 -11 -14 -19 -6 -27 7
-7 17 2 31 31 12 22 19 41 16 41 -3 0 -1 8 4 18 5 9 12 35 15 57 4 25 16 48
32 61 22 20 23 22 7 29 -18 8 -27 11 -39 14 -4 0 -1 8 6 16 9 10 9 15 1 15
-16 0 16 80 43 105 11 11 22 29 24 40 6 34 50 94 82 110 16 8 33 27 36 41 8
31 -1 41 -21 24 -33 -27 -12 7 26 43 22 21 38 44 36 51 -6 15 18 62 30 58 13
-4 56 43 78 84 46 90 88 153 140 209 31 33 63 72 72 88 10 15 21 27 25 27 4 0
8 5 8 11 0 6 -9 9 -20 6 -27 -7 -26 -5 18 41 41 43 76 65 86 55 14 -15 50 -12
66 4 9 10 75 47 146 83 135 68 158 84 198 138 21 29 25 31 39 18 13 -13 17
-13 27 -2 10 13 63 27 118 31 12 1 25 4 27 7 12 11 56 -6 67 -25z m-1624 11
c-7 -19 -35 -21 -35 -3 0 8 9 15 20 15 10 0 17 -5 15 -12z m726 -463 c-6 -16
-24 -21 -24 -7 0 11 11 22 21 22 5 0 6 -7 3 -15z m936 -110 c0 -8 -4 -15 -10
-15 -5 0 -7 7 -4 15 4 8 8 15 10 15 2 0 4 -7 4 -15z m-1292 -35 c-13 -21 -38
-27 -38 -10 0 9 28 29 43 30 4 0 2 -9 -5 -20z m1236 -179 c3 -5 -1 -12 -10
-15 -22 -9 -24 -8 -24 9 0 16 25 21 34 6z m-164 -345 c0 -8 -4 -18 -10 -21 -5
-3 -10 3 -10 14 0 12 5 21 10 21 6 0 10 -6 10 -14z m-66 -221 c-4 -8 -10 -12
-15 -9 -14 8 -10 24 6 24 9 0 12 -6 9 -15z m-1138 -34 c-4 -5 -13 -8 -22 -4
-11 4 -12 8 -3 20 14 16 36 2 25 -16z m-113 -386 c-19 -39 -33 -44 -50 -16
-13 20 -6 32 27 44 35 13 40 8 23 -28z m-303 0 c0 -9 -9 -15 -21 -15 -18 0
-19 2 -9 15 7 8 16 15 21 15 5 0 9 -7 9 -15z m90 -60 c0 -8 -4 -15 -10 -15 -5
0 -10 7 -10 15 0 8 5 15 10 15 6 0 10 -7 10 -15z m2644 -39 c-3 -9 -12 -16
-19 -16 -21 0 -24 23 -7 43 13 15 17 16 24 3 4 -8 5 -21 2 -30z m-66 -144 c2
-7 -3 -12 -12 -12 -9 0 -16 7 -16 16 0 17 22 14 28 -4z m-78 -89 c0 -22 -17
-50 -25 -42 -6 7 11 59 20 59 3 0 5 -8 5 -17z m-2409 -247 c-11 -26 -31 -36
-31 -14 0 13 31 50 37 44 2 -2 -1 -15 -6 -30z m-40 -205 c-12 -39 -23 -79 -24
-91 -1 -11 -7 -20 -13 -20 -14 0 -15 91 -2 100 4 3 9 16 11 28 4 26 35 67 44
58 3 -3 -4 -37 -16 -75z m1605 17 c-3 -7 -9 -21 -12 -30 -4 -10 -10 -18 -15
-18 -4 0 -3 14 2 30 6 17 15 30 21 30 5 0 7 -6 4 -12z m94 -186 c0 -9 -38 -52
-45 -52 -2 0 4 13 13 30 16 28 32 39 32 22z m414 -107 c-4 -8 -10 -12 -15 -9
-11 6 -2 24 11 24 5 0 7 -7 4 -15z m181 -5 c3 -5 -3 -10 -14 -10 -11 0 -23 5
-26 10 -3 6 3 10 14 10 11 0 23 -4 26 -10z m-1061 -450 c-15 -29 -25 -36 -37
-24 -9 10 4 34 19 34 8 0 14 5 14 10 0 6 4 10 9 10 5 0 3 -13 -5 -30z m-61
-46 c3 -3 3 -12 0 -20 -4 -11 -9 -12 -19 -3 -8 6 -14 15 -14 20 0 10 24 12 33
3z m1327 -229 c0 -14 -4 -25 -9 -25 -5 0 -8 11 -7 25 1 33 16 33 16 0z m-1680
-169 c0 -8 -19 -22 -42 -32 -24 -10 -46 -20 -50 -22 -5 -2 -8 3 -8 12 0 9 6
16 14 16 8 0 21 6 28 13 13 13 35 25 51 26 4 1 7 -5 7 -13z m-140 -66 c-14
-25 -26 -19 -15 7 5 10 9 21 10 26 6 20 8 21 12 5 2 -9 -1 -27 -7 -38z"/>
<path d="M1251 9563 c-24 -29 -22 -38 6 -29 12 4 19 15 19 31 0 14 -1 25 -2
25 -2 0 -12 -12 -23 -27z"/>
<path d="M11933 12615 c-33 -29 -20 -33 20 -6 16 10 24 21 19 25 -6 3 -23 -5
-39 -19z"/>
<path d="M16687 12086 c-3 -8 -3 -17 1 -20 11 -11 11 -36 -1 -36 -5 0 -8 -3
-4 -6 11 -11 -29 -77 -77 -128 -52 -55 -57 -69 -22 -60 13 3 27 1 31 -5 7 -12
-36 -59 -70 -78 -14 -8 -19 -20 -17 -46 1 -20 -2 -38 -8 -42 -6 -3 -7 0 -4 10
14 35 -23 2 -40 -36 -21 -47 -111 -144 -134 -144 -10 0 -21 -15 -29 -44 -7
-24 -18 -49 -24 -57 -6 -8 -8 -14 -5 -14 4 0 -5 -12 -19 -27 -14 -15 -25 -33
-25 -40 0 -7 -5 -13 -11 -13 -5 0 -7 -4 -4 -10 3 -5 -12 -22 -34 -37 -22 -16
-47 -45 -57 -65 -9 -20 -29 -43 -45 -51 -16 -7 -39 -32 -51 -55 -13 -22 -39
-60 -58 -82 -19 -23 -45 -61 -57 -83 -21 -37 -21 -43 -8 -64 18 -28 21 -73 3
-55 -9 9 -17 5 -34 -13 -13 -14 -31 -25 -41 -25 -10 0 -26 -9 -36 -20 -16 -19
-16 -22 -1 -45 13 -21 14 -25 2 -25 -8 0 -19 5 -24 10 -7 7 -18 4 -34 -10 -13
-11 -20 -20 -17 -20 3 0 1 -13 -4 -30 -6 -16 -15 -27 -21 -24 -10 7 -58 -45
-58 -63 0 -7 -9 -18 -20 -25 -11 -7 -20 -23 -20 -35 0 -36 32 -27 62 17 32 46
47 51 40 15 -5 -28 -74 -95 -98 -95 -8 0 -24 5 -36 11 -11 6 -22 9 -24 6 -3
-2 -6 -33 -8 -69 -3 -73 -9 -88 -36 -88 -13 0 -17 5 -14 15 4 9 0 15 -9 15
-24 0 -77 -79 -91 -134 -3 -14 -17 -32 -30 -38 -16 -7 -28 -24 -35 -52 -8 -30
-20 -47 -46 -64 -19 -12 -35 -28 -35 -35 0 -8 -13 -26 -30 -40 -16 -15 -30
-34 -30 -42 0 -18 -38 -86 -67 -119 -24 -27 -46 -94 -47 -141 -1 -16 -7 -31
-13 -31 -7 -1 -22 -2 -33 -3 -23 -1 -17 -31 7 -31 8 0 13 -6 10 -12 -2 -7 -16
-12 -30 -11 -22 1 -25 -2 -22 -25 5 -46 -23 -82 -110 -142 -59 -41 -90 -74
-106 -115 -21 -56 -32 -75 -44 -75 -15 0 -81 -74 -101 -112 -9 -18 -20 -25
-29 -22 -13 5 -12 10 5 34 18 25 18 40 0 40 -4 0 -12 -11 -18 -25 -7 -14 -23
-31 -37 -37 -16 -7 -28 -23 -32 -40 -3 -16 -9 -31 -14 -33 -4 -3 3 -22 16 -42
14 -20 25 -40 25 -45 0 -5 5 -6 10 -3 6 3 10 1 10 -4 0 -9 -32 -14 -66 -10 -4
0 -12 -10 -18 -23 -6 -13 -28 -31 -49 -41 -38 -18 -41 -21 -51 -69 -4 -16 -13
-28 -20 -28 -15 0 -28 -23 -31 -56 -2 -21 -52 -94 -64 -94 -4 0 -15 -16 -25
-36 -9 -21 -28 -46 -42 -56 -13 -11 -34 -42 -45 -69 -23 -53 -60 -89 -90 -89
-11 0 -20 -7 -20 -15 -1 -8 -2 -21 -3 -27 -1 -7 6 -19 16 -26 23 -17 23 -32
-1 -32 -38 0 -52 59 -26 110 9 18 13 39 9 48 -4 10 -8 28 -9 42 -5 46 -17 225
-16 238 1 12 1 28 1 55 -1 40 8 157 14 185 5 22 13 32 27 32 25 0 24 15 -4 37
-20 16 -23 28 -25 103 -1 47 -6 86 -12 88 -14 5 -13 13 6 58 9 22 18 62 19 89
2 64 20 101 41 84 11 -9 14 -8 14 5 0 9 -1 17 -2 19 -1 1 4 12 10 24 14 26 -1
41 -23 23 -12 -10 -16 -8 -24 11 -8 22 -5 68 5 78 2 2 14 0 27 -6 19 -9 24 -7
34 13 11 24 4 36 -22 40 -5 0 -16 2 -22 2 -22 3 -14 49 12 80 29 34 53 98 47
125 -5 24 -22 22 -22 -3 0 -11 -5 -20 -11 -20 -5 0 -7 -5 -4 -10 7 -11 -22
-26 -32 -16 -11 11 75 154 120 199 l20 20 -46 24 c-50 25 -55 33 -34 55 7 7
18 26 25 41 8 18 28 34 57 47 25 11 44 23 44 27 -1 4 5 24 14 43 8 19 14 37
11 39 -3 3 -39 8 -91 13 -7 1 -13 5 -13 10 0 4 18 8 40 8 31 0 40 4 41 18 3
55 8 96 24 174 13 65 21 85 31 81 8 -3 14 -11 14 -18 0 -7 6 -18 14 -24 21
-18 26 7 10 53 -18 51 -18 53 9 60 17 4 27 17 36 46 7 23 18 43 25 46 7 3 11
16 8 33 -2 16 3 44 13 64 15 33 27 162 17 199 -2 10 -13 20 -24 24 -17 5 -18
8 -5 28 8 12 13 40 12 66 -5 91 -22 117 -82 122 -9 1 -12 43 -3 43 1 0 4 13 6
30 3 16 7 31 9 33 8 8 -29 85 -52 108 -13 14 -35 49 -49 79 -15 32 -33 57 -46
61 -11 3 -37 21 -57 40 -21 18 -58 42 -83 53 -25 10 -55 31 -66 46 -12 15 -22
24 -22 20 0 -5 -8 -1 -18 8 -10 9 -38 23 -62 32 -24 8 -48 19 -54 24 -6 4 -24
12 -41 16 -16 5 -34 9 -40 11 -5 2 -23 6 -39 9 -16 3 -33 8 -37 11 -8 4 -50
-29 -99 -78 -29 -28 -41 -54 -46 -95 -1 -12 -5 -34 -8 -50 -3 -15 -8 -53 -12
-83 -4 -30 -8 -64 -9 -75 -21 -146 -18 -131 -40 -215 -19 -71 -22 -84 -34
-148 -5 -23 -15 -50 -24 -60 -8 -9 -18 -35 -21 -57 -10 -55 -56 -207 -67 -221
-5 -7 -9 -16 -7 -20 4 -17 -23 -149 -32 -154 -5 -3 -11 -20 -14 -38 -4 -17 -8
-46 -11 -63 -3 -16 -13 -49 -21 -72 -10 -27 -18 -92 -21 -182 -3 -77 -10 -151
-16 -165 -6 -14 -11 -45 -12 -70 -1 -25 -9 -68 -19 -95 -13 -37 -15 -57 -8
-75 5 -14 11 -29 12 -35 1 -5 7 -16 13 -24 9 -11 9 -15 0 -18 -15 -5 -20 -38
-28 -167 -3 -54 -8 -102 -11 -107 -13 -22 -17 -59 -28 -279 -5 -100 -13 -167
-21 -181 -3 -4 1 -13 8 -21 29 -29 37 -54 22 -75 -23 -33 -32 -175 -14 -230 7
-22 7 -44 -1 -75 -17 -61 -15 -159 5 -258 3 -14 8 -40 11 -57 3 -18 10 -33 14
-33 4 0 15 -11 24 -25 15 -23 15 -26 -15 -60 -32 -36 -32 -50 -1 -50 13 0 17
-13 18 -70 4 -117 33 -250 66 -303 11 -18 22 -47 25 -65 9 -62 95 -255 146
-330 10 -15 15 -27 10 -27 -4 0 -3 -4 3 -8 12 -8 58 -82 110 -178 45 -84 54
-96 68 -91 22 8 96 -54 120 -102 24 -45 84 -89 132 -97 l43 -6 -16 -39 c-14
-36 -14 -41 1 -64 9 -14 20 -25 24 -26 58 -5 102 -11 125 -19 25 -8 28 -7 22
10 -5 15 0 22 20 30 36 14 35 14 29 -19 -6 -28 9 -51 21 -31 10 17 39 11 75
-15 38 -28 80 -33 80 -10 0 22 78 93 132 121 41 21 48 29 48 53 0 21 12 41 40
70 23 23 46 41 52 41 7 0 7 4 -1 14 -9 11 -4 17 26 31 44 21 53 31 48 57 -2
10 0 18 6 18 5 0 8 3 6 8 -3 11 39 62 52 62 23 0 10 18 -18 23 -47 10 -68 -2
-87 -46 -9 -23 -19 -37 -21 -30 -4 12 42 113 56 123 4 3 17 26 29 51 33 68 62
91 128 100 51 7 73 19 74 41 0 4 -13 5 -30 2 -21 -5 -30 -3 -30 7 0 7 -12 25
-26 40 -24 25 -25 28 -11 55 19 37 64 76 72 63 4 -5 -8 -27 -25 -49 -35 -45
-30 -48 46 -29 37 10 44 15 44 36 0 20 -4 24 -20 20 -24 -6 -26 6 -5 27 8 8
15 17 15 21 0 3 17 24 38 46 50 54 53 61 37 83 -13 17 -15 17 -30 2 -20 -20
-25 -20 -25 -1 0 8 9 19 21 25 16 9 24 8 37 -3 21 -19 63 -30 78 -20 18 13 33
48 26 59 -4 6 -26 10 -49 8 -24 -1 -43 2 -43 6 0 14 55 21 83 11 15 -6 27 -8
27 -5 0 2 9 0 19 -6 31 -16 35 6 7 37 -14 15 -23 30 -20 35 3 4 0 8 -5 8 -6 0
-11 9 -11 20 0 11 7 20 15 20 17 0 20 25 5 35 -17 10 -11 37 12 56 15 14 24
16 34 8 7 -6 28 -9 46 -7 l33 3 -22 23 c-32 31 -29 45 7 27 30 -16 40 -9 19
12 -9 9 -8 16 5 28 9 9 16 21 16 27 0 6 11 3 25 -6 30 -20 34 -20 31 -2 -4 25
-60 76 -86 76 l-25 1 29 23 c23 20 32 22 42 12 16 -16 74 -8 74 10 0 13 -12
18 -32 15 -5 0 -8 4 -8 9 0 6 -7 10 -15 10 -18 0 -18 1 -5 34 5 14 15 26 21
26 7 0 9 -3 6 -6 -3 -4 -2 -15 4 -26 8 -15 13 -17 25 -8 7 7 12 16 9 20 -3 5
3 6 14 3 13 -3 20 2 24 19 5 17 21 30 53 44 l47 19 -29 33 -30 32 -24 -25
c-33 -35 -43 -31 -23 10 21 43 72 66 80 35 6 -22 11 -24 32 -11 13 8 13 16 1
53 -20 63 -20 66 0 90 9 13 20 32 24 43 3 12 19 29 36 38 16 10 29 21 29 25
-7 48 22 91 66 97 17 2 31 4 33 6 1 1 6 2 10 3 5 0 17 9 27 19 12 12 26 16 41
13 l24 -6 -20 53 c-19 51 -19 76 2 102 33 40 78 105 78 113 0 14 61 72 76 72
8 0 14 9 14 21 0 19 1 19 16 5 26 -26 54 -20 60 14 4 16 14 32 24 35 29 9 49
67 54 153 2 29 6 55 9 58 12 12 27 -8 27 -36 0 -16 4 -31 9 -34 15 -9 19 42 6
68 -7 14 -10 27 -7 31 3 3 7 11 8 18 5 29 24 65 55 100 18 21 42 57 53 80 12
23 24 39 27 37 11 -9 38 21 33 35 -3 7 4 18 15 25 12 6 21 17 21 25 0 23 16
26 37 7 20 -18 21 -34 8 -192 -3 -30 -7 -217 -10 -416 -6 -466 -8 -484 -41
-484 -19 0 -18 -17 5 -49 21 -29 44 -131 30 -131 -5 0 -5 -10 0 -22 5 -13 5
-33 0 -45 -5 -13 -5 -23 -1 -23 11 0 13 -88 2 -95 -5 -3 -10 -13 -10 -21 0 -8
4 -13 9 -10 5 3 14 -1 21 -9 10 -12 9 -15 -4 -15 -16 0 -22 -15 -30 -88 -3
-23 -10 -50 -15 -60 -6 -12 -5 -23 5 -37 19 -25 18 -59 -3 -76 -9 -8 -19 -13
-22 -12 -13 3 1 -20 21 -37 25 -20 32 -100 9 -108 -8 -3 -11 0 -7 6 8 14 -8
24 -27 16 -21 -8 -28 -41 -16 -72 l10 -27 19 25 18 25 6 -25 c9 -37 2 -122
-11 -145 -10 -18 -12 -16 -17 15 -3 19 -7 46 -8 60 -4 33 -22 27 -23 -7 0 -16
-4 -33 -8 -40 -11 -18 11 -56 41 -74 25 -14 28 -22 29 -73 1 -55 0 -57 -32
-70 -43 -18 -50 -32 -20 -40 18 -5 25 -13 25 -31 0 -27 -24 -35 -34 -10 -7 19
-27 19 -52 0 -19 -14 -18 -15 8 -37 14 -13 31 -41 38 -63 12 -42 31 -87 41
-95 3 -3 23 -41 45 -84 40 -80 57 -104 152 -205 28 -30 52 -59 52 -63 0 -5 7
-8 16 -8 25 0 87 -32 112 -57 12 -13 35 -28 50 -34 15 -5 28 -17 29 -27 4 -54
19 -67 83 -75 55 -7 82 -16 75 -27 -6 -9 18 -20 60 -27 49 -8 125 -58 125 -82
0 -6 4 -11 9 -11 13 0 22 43 11 54 -13 13 -13 53 0 61 6 3 10 -5 10 -19 0 -13
6 -31 14 -39 39 -38 110 32 112 111 2 50 6 56 39 58 13 0 31 7 39 13 14 12 14
17 0 49 -19 45 -42 139 -50 207 -10 80 -10 463 0 545 10 90 9 126 -5 151 -7
15 -6 21 6 25 8 3 12 10 9 15 -3 6 10 24 30 42 30 28 36 42 46 101 6 38 17 80
24 95 13 24 35 97 36 114 0 16 31 67 41 67 6 0 8 -4 5 -9 -3 -5 0 -11 8 -14
21 -8 29 23 11 43 -17 19 -19 42 -5 56 7 7 4 16 -9 28 -19 17 -18 18 17 51 36
33 37 35 37 109 0 57 3 75 12 71 14 -5 43 43 43 70 0 9 14 36 30 60 17 24 30
55 30 70 0 18 7 28 24 35 19 7 29 23 42 69 9 34 24 66 32 73 9 7 13 8 10 3 -7
-12 8 -43 16 -35 2 3 5 25 7 50 3 58 8 70 25 70 10 0 14 15 14 61 0 33 4 58 9
55 5 -3 12 6 16 22 8 35 42 70 83 87 17 8 32 19 32 24 0 6 6 11 13 11 20 0 37
44 29 75 -13 48 -2 95 24 106 14 5 29 20 34 34 12 32 13 48 2 41 -4 -2 -14 -1
-21 3 -10 7 -8 13 9 29 23 22 67 23 80 2 5 -9 13 -6 29 11 25 27 27 45 5 57
-25 14 69 108 103 104 32 -5 44 14 32 46 -8 20 -5 27 16 44 14 11 25 27 25 35
0 9 10 30 23 47 12 17 29 49 36 71 8 22 26 55 40 72 27 34 28 36 30 79 1 20 6
25 24 24 52 -5 67 1 82 30 9 17 22 30 30 30 8 0 15 9 15 20 0 11 -4 20 -10 20
-16 0 -12 30 5 36 8 3 28 -4 44 -15 35 -25 45 -27 37 -6 -4 11 3 17 24 21 45
9 65 39 70 104 0 12 3 11 15 -3 9 -13 20 -17 33 -13 28 9 37 36 12 36 -13 0
-18 5 -14 15 4 8 10 13 14 10 4 -3 10 2 14 10 4 12 11 13 31 5 35 -13 33 -14
37 18 2 15 8 26 15 25 6 -1 26 11 43 27 18 17 38 30 44 29 35 -4 39 2 16 26
-23 24 -23 24 -1 20 14 -2 21 1 21 11 0 12 3 12 23 -1 22 -14 26 -14 53 7 41
32 49 41 57 61 3 9 11 17 17 17 8 0 8 -6 0 -20 -6 -11 -8 -20 -5 -21 19 -4 46
-1 85 11 25 8 56 15 70 16 14 1 25 3 25 3 0 1 54 4 120 5 179 5 204 11 266 62
55 45 78 76 79 107 0 10 8 18 20 18 11 1 29 2 39 3 50 3 50 58 1 91 -30 20
-40 50 -19 57 20 7 0 44 -23 45 -13 1 -33 13 -45 27 -12 15 -25 21 -28 16 -3
-6 -13 -10 -22 -10 -12 0 -15 8 -10 39 4 33 1 43 -22 65 -15 14 -35 26 -44 26
-9 0 -17 5 -17 12 0 6 -3 8 -7 5 -12 -12 -32 27 -21 40 6 7 7 13 2 13 -5 0 -2
4 6 10 8 5 12 11 9 14 -5 5 -42 14 -66 15 -7 1 -19 17 -27 36 -10 23 -22 35
-34 35 -11 0 -39 17 -63 38 -49 43 -83 57 -184 76 -5 1 -14 4 -20 8 -15 9
-168 3 -185 -7 -8 -5 -55 -10 -105 -11 -49 -1 -112 -5 -140 -9 -27 -4 -57 -8
-65 -9 -26 -4 -154 -48 -175 -61 -11 -7 -33 -16 -50 -20 -16 -3 -32 -11 -36
-16 -3 -5 -32 -16 -64 -24 -32 -9 -79 -31 -105 -50 -26 -19 -55 -35 -63 -35
-9 0 -30 -13 -47 -30 -27 -26 -81 -61 -95 -60 -3 0 -6 -3 -7 -7 -2 -5 14 -12
35 -17 43 -11 57 0 57 42 0 19 3 21 18 13 11 -6 34 -5 67 4 62 16 79 8 34 -15
-78 -40 -95 -50 -114 -67 -53 -49 -116 -84 -147 -82 -18 2 -43 -3 -55 -10 -13
-6 -23 -8 -23 -4 0 4 -6 -3 -14 -17 -7 -14 -23 -42 -35 -62 -22 -36 -22 -36
-2 -31 12 3 21 9 21 14 0 5 5 9 10 9 18 0 10 -25 -18 -52 -38 -37 -83 -59 -97
-48 -8 7 -24 -5 -51 -37 -21 -25 -45 -52 -52 -60 -7 -7 -11 -13 -8 -13 3 0 -4
-12 -17 -26 -24 -28 -41 -64 -29 -64 4 0 18 12 31 25 35 37 44 30 21 -15 -24
-48 -58 -66 -77 -41 -12 14 -12 14 -7 -4 4 -11 15 -29 25 -40 10 -11 15 -25
11 -31 -14 -20 -77 -59 -137 -85 -44 -19 -61 -32 -63 -47 -3 -22 12 -30 23
-12 9 15 22 12 29 -5 5 -14 -21 -71 -72 -154 -11 -18 -18 -40 -15 -47 6 -16
-13 -19 -22 -4 -11 18 -24 10 -42 -27 -10 -21 -30 -50 -45 -65 -26 -26 -34
-44 -41 -97 -2 -14 -13 -28 -26 -32 -17 -7 -23 -4 -30 13 -4 12 -6 36 -4 52 9
71 9 92 1 118 -9 26 -14 27 -57 16 -10 -2 -15 7 -17 27 -1 17 -4 59 -8 95 -7
74 -14 174 -21 304 -5 93 -17 125 -41 105 -9 -8 -10 -17 -3 -36 5 -14 7 -29 3
-32 -11 -11 -32 29 -38 74 -4 24 -13 46 -21 49 -9 3 -12 14 -9 28 7 32 12 52
14 58 1 3 2 8 2 11 -2 12 67 77 88 84 11 3 21 11 21 16 1 5 2 14 3 21 0 7 13
19 28 28 23 12 31 13 48 2 25 -15 41 -15 39 1 -4 33 2 49 16 43 19 -7 19 3 0
28 -21 28 -19 42 3 23 17 -15 20 -15 43 0 94 63 97 103 11 147 -31 16 -45 39
-20 33 6 -1 16 12 21 30 8 26 14 31 36 30 25 -2 26 -1 23 52 -4 62 -19 102
-32 81 -5 -7 -6 -20 -3 -28 5 -12 2 -12 -14 -3 -25 13 -33 32 -33 77 0 19 -4
34 -10 34 -5 0 -13 0 -17 1 -14 1 -25 30 -29 72 -3 23 -10 48 -18 56 -8 10
-12 29 -9 49 3 17 1 32 -3 33 -5 0 -19 2 -32 3 -12 2 -49 30 -82 64 -33 34
-66 62 -74 62 -8 0 -27 15 -44 34 -31 36 -81 51 -114 35 -11 -6 -34 1 -75 24
-62 35 -118 41 -162 18 -29 -16 -32 -14 -25 14 4 18 2 25 -9 25 -8 0 -17 -6
-20 -14z m-187 -560 c0 -17 -41 -29 -54 -16 -6 6 0 13 15 19 33 13 39 13 39
-3z m2008 -167 c-2 -6 -8 -10 -13 -10 -5 0 -11 4 -13 10 -2 6 4 11 13 11 9 0
15 -5 13 -11z m-1043 -111 c-8 -21 -50 -42 -70 -35 -21 9 -1 41 34 54 30 11
44 3 36 -19z m645 -182 c-14 -12 -27 -19 -28 -14 -6 13 18 38 37 38 12 0 10
-6 -9 -24z m-1200 -86 c0 -5 -2 -10 -4 -10 -3 0 -8 5 -11 10 -3 6 -1 10 4 10
6 0 11 -4 11 -10z m-2530 -44 c-15 -15 -33 4 -19 20 10 12 14 12 20 2 5 -7 4
-17 -1 -22z m3850 30 c0 -2 3 -11 6 -20 4 -11 1 -16 -10 -16 -9 0 -16 2 -16 4
0 2 -3 11 -6 20 -4 11 -1 16 10 16 9 0 16 -2 16 -4z m260 -56 c-8 -6 -24 -15
-35 -21 -16 -8 -15 -6 4 10 13 12 28 21 35 21 6 0 4 -5 -4 -10z m-2485 -51
c-8 -12 -35 -12 -35 0 0 11 22 20 33 14 4 -2 5 -9 2 -14z m2160 2 c-3 -6 -11
-11 -16 -11 -5 0 -4 6 3 14 14 16 24 13 13 -3z m-246 -8 c-21 -27 -42 -42 -59
-43 -8 0 1 13 20 30 39 32 60 40 39 13z m1631 -57 c0 -14 -34 -28 -44 -18 -6
5 24 31 37 32 4 0 7 -6 7 -14z m-1567 -164 c-2 -10 -11 -19 -19 -19 -17 0 -18
9 -2 25 17 17 27 15 21 -6z m-2203 -11 c0 -5 -7 -11 -15 -15 -15 -5 -20 5 -8
17 9 10 23 9 23 -2z m3250 -5 c0 -7 -18 -25 -40 -40 -22 -14 -40 -24 -40 -21
0 2 -11 1 -23 -4 -31 -12 -54 1 -33 18 7 6 25 14 37 16 13 3 25 9 27 15 2 5
10 10 18 10 8 0 14 5 14 10 0 6 9 10 20 10 11 0 20 -6 20 -14z m-230 -18 c0
-13 -23 -5 -28 10 -2 7 2 10 12 6 9 -3 16 -11 16 -16z m-500 -103 c0 -8 -2
-15 -4 -15 -2 0 -6 7 -10 15 -3 8 -1 15 4 15 6 0 10 -7 10 -15z m352 -17 c-15
-15 -24 -6 -16 16 5 12 10 14 17 7 8 -8 8 -14 -1 -23z m-2934 -86 c4 -24 -21
-30 -48 -12 -13 9 -12 12 5 25 24 19 39 15 43 -13z m2072 -18 c0 -3 -14 -24
-31 -45 -29 -37 -32 -38 -45 -22 -17 23 -18 44 -1 37 8 -3 25 4 38 15 24 21
39 26 39 15z m574 -53 c3 -5 -1 -14 -8 -20 -16 -13 -32 2 -21 19 8 12 22 13
29 1z m126 -11 c0 -8 -39 -50 -48 -51 -4 0 -15 -2 -24 -4 -30 -6 -19 20 19 46
23 16 53 21 53 9z m-2214 -47 c-10 -10 -19 5 -10 18 6 11 8 11 12 0 2 -7 1
-15 -2 -18z m2266 5 c-3 -13 -15 -30 -26 -39 -30 -24 -40 -2 -15 33 25 34 50
38 41 6z m59 -1 c-6 -8 -9 -16 -7 -18 2 -2 -5 -13 -15 -23 -15 -15 -19 -16
-19 -5 0 17 31 59 44 59 5 0 3 -6 -3 -13z m-4368 -62 c-6 -18 -34 -20 -30 -2
3 15 19 27 29 21 4 -3 5 -11 1 -19z m3080 -12 c2 -5 -7 -18 -20 -30 -20 -19
-25 -20 -29 -8 -9 23 3 45 25 45 11 0 22 -3 24 -7z m1137 -16 c0 -19 -56 -82
-63 -70 -3 5 8 26 24 46 33 40 39 44 39 24z m-2105 -27 c9 -15 -3 -30 -20 -24
-7 3 -11 12 -8 20 6 16 19 18 28 4z m1305 -21 c0 -4 -13 -12 -29 -19 -36 -15
-61 -4 -35 15 18 13 64 16 64 4z m170 -30 c0 -14 -20 -11 -36 5 -10 11 -11 15
-1 19 13 5 37 -10 37 -24z m466 15 c-1 -8 -15 -27 -30 -41 l-28 -26 7 24 c13
43 56 80 51 43z m-771 -34 c9 -14 -14 -21 -34 -11 -10 6 -21 17 -24 25 -5 12
-1 13 24 4 16 -5 31 -14 34 -18z m-1205 -28 c0 -5 -16 -16 -35 -25 -30 -14
-35 -14 -35 -2 0 8 15 19 33 24 17 5 33 10 35 10 1 1 2 -3 2 -7z m973 -54
c-11 -20 -23 -4 -23 30 l1 37 13 -30 c7 -16 11 -33 9 -37z m637 55 c0 -5 -4
-15 -10 -23 -11 -18 -25 -7 -17 15 6 15 27 21 27 8z m510 -14 c0 -5 -7 -9 -15
-9 -15 0 -20 12 -9 23 8 8 24 -1 24 -14z m-869 -12 c-13 -13 -26 -3 -16 12 3
6 11 8 17 5 6 -4 6 -10 -1 -17z m-1450 -23 c-11 -15 -21 -22 -21 -15 0 12 32
50 39 45 2 -2 -6 -15 -18 -30z m1400 -58 c-16 -33 -71 -77 -71 -57 0 10 73 91
82 91 3 0 -2 -15 -11 -34z m797 22 c-7 -19 -38 -22 -38 -4 0 10 9 16 21 16 12
0 19 -5 17 -12z m-1025 -33 c-3 -8 -9 -15 -14 -15 -10 0 -12 24 -3 33 11 11
24 -3 17 -18z m-2083 -191 c0 -12 -51 -54 -65 -54 -10 0 4 53 15 60 17 10 50
6 50 -6z m2179 -20 c-13 -7 -28 -10 -33 -7 -5 3 2 12 15 19 13 7 28 10 33 7 5
-3 -2 -12 -15 -19z m-1271 -30 c-1 -9 -9 -19 -16 -22 -8 -2 -11 4 -8 20 3 12
5 27 5 33 1 5 6 4 12 -2 6 -6 9 -19 7 -29z m-275 -89 c-6 -16 -16 -19 -26 -8
-9 8 13 34 24 28 4 -3 6 -12 2 -20z m113 -50 c-8 -8 -17 -15 -20 -15 -3 0 -6
7 -6 15 0 9 9 15 21 15 18 0 19 -2 5 -15z m-163 -28 c-2 -4 -6 -7 -10 -8 -5
-1 -16 -5 -25 -10 -20 -11 -21 -9 -12 15 3 9 15 14 27 12 12 -2 21 -6 20 -9z
m287 -119 c-1 -7 -10 -24 -21 -37 -24 -29 -45 -16 -35 23 5 19 13 26 31 26 14
0 25 -6 25 -12z m1770 -9 c0 -11 -4 -18 -10 -14 -5 3 -7 12 -3 20 7 21 13 19
13 -6z m143 2 c6 -24 0 -31 -19 -24 -18 7 -18 43 0 43 7 0 16 -9 19 -19z
m-2318 -20 c-3 -6 -11 -11 -17 -11 -6 0 -6 6 2 15 14 17 26 13 15 -4z m325 5
c0 -17 -14 -29 -23 -20 -8 8 3 34 14 34 5 0 9 -6 9 -14z m-139 -27 c23 -12 16
-29 -12 -29 -12 0 -19 7 -19 20 0 23 4 24 31 9z m-76 -9 c8 -13 -5 -13 -25 0
-13 8 -13 10 2 10 9 0 20 -4 23 -10z m1955 -43 c0 -19 -10 -27 -25 -20 -17 6
-8 33 11 33 8 0 14 -6 14 -13z m106 -12 c-10 -8 -23 -12 -28 -9 -14 9 2 24 25
24 21 -1 21 -1 3 -15z m-2011 -24 c3 -6 -4 -15 -15 -21 -16 -8 -20 -8 -20 3 0
25 23 36 35 18z m1599 -110 c-6 -6 -24 19 -24 34 1 6 7 1 15 -9 8 -11 12 -22
9 -25z m252 -1 c0 -11 -4 -20 -8 -20 -5 0 -12 0 -17 0 -5 0 -7 9 -4 20 7 26
31 26 29 0z m-202 -25 c-6 -16 -34 -21 -34 -7 0 13 11 22 26 22 8 0 11 -6 8
-15z m356 5 c0 -5 -7 -10 -15 -10 -8 0 -15 5 -15 10 0 6 7 10 15 10 8 0 15 -4
15 -10z m-2146 -199 c3 -5 -1 -14 -8 -20 -16 -13 -32 2 -21 19 8 12 22 13 29
1z m2036 0 c0 -12 -26 -32 -33 -25 -9 10 4 34 19 34 8 0 14 -4 14 -9z m-2382
-72 c-12 -34 -24 -37 -31 -10 -6 25 22 69 33 51 4 -7 3 -26 -2 -41z m-2134
-17 c7 -12 -24 -70 -41 -76 -11 -5 -13 -1 -7 17 4 12 11 24 15 25 5 2 9 12 9
23 0 19 15 26 24 11z m2030 -11 c7 -11 -3 -41 -14 -41 -11 0 -21 30 -14 41 3
5 9 9 14 9 5 0 11 -4 14 -9z m2406 -75 c0 -8 -4 -18 -10 -21 -5 -3 -10 3 -10
14 0 12 5 21 10 21 6 0 10 -6 10 -14z m-69 -113 c0 -5 2 -19 5 -32 l4 -24 -19
24 c-19 23 -19 39 0 39 5 0 9 -3 10 -7z m-2264 -118 c0 -8 -4 -15 -9 -15 -4 0
-8 7 -8 15 0 8 4 15 8 15 5 0 9 -7 9 -15z m2114 -98 c-13 -13 -26 -3 -16 12 3
6 11 8 17 5 6 -4 6 -10 -1 -17z m-21 -68 c0 -4 -4 -10 -9 -13 -14 -9 -32 20
-25 39 7 17 8 17 21 -1 7 -10 13 -21 13 -25z m-2390 3 c0 -18 -18 -42 -30 -42
-10 0 -8 34 3 48 14 18 27 15 27 -6z m125 -131 c3 -6 -3 -15 -14 -20 -18 -10
-21 -3 -12 27 2 6 20 1 26 -7z m46 -68 c-8 -15 -10 -15 -11 -2 0 17 10 32 18
25 2 -3 -1 -13 -7 -23z m-1111 7 c0 -5 -4 -10 -10 -10 -5 0 -10 5 -10 10 0 6
5 10 10 10 6 0 10 -4 10 -10z m3290 -49 c0 -17 -12 -41 -20 -41 -5 0 -7 8 -5
18 2 9 4 20 4 25 1 10 21 9 21 -2z m-2570 -109 c0 -10 -21 -32 -31 -32 -6 0
-6 19 0 38 2 6 31 1 31 -6z m2594 -11 c7 -10 -29 -44 -49 -47 -21 -3 -19 12 5
36 22 22 36 25 44 11z m-2521 -56 c-3 -9 -8 -14 -10 -11 -3 3 -2 9 2 15 9 16
15 13 8 -4z m-129 -506 c-30 -31 -34 -34 -34 -20 0 16 42 61 52 55 5 -4 -2
-19 -18 -35z m-64 -53 c0 -19 -60 -105 -82 -117 -19 -10 -19 -9 -3 21 9 17 22
33 29 36 8 3 16 18 20 35 3 17 12 29 21 29 8 0 15 -2 15 -4z m-646 -582 c18
-7 22 -24 5 -24 -6 0 -17 7 -25 15 -16 16 -7 19 20 9z m262 -10 c-3 -9 -6 -22
-6 -30 0 -8 -6 -11 -15 -8 -16 6 -16 21 0 41 14 18 28 16 21 -3z"/>
<path d="M16176 11344 c-18 -17 -21 -44 -7 -44 11 0 41 39 41 52 0 13 -18 9
-34 -8z"/>
<path d="M18137 11198 c-7 -27 -5 -30 15 -23 10 4 14 14 11 26 -7 25 -19 24
-26 -3z"/>
<path d="M18004 11089 c-3 -6 -1 -16 4 -21 8 -8 11 -5 9 11 -1 24 -3 25 -13
10z"/>
<path d="M17951 10946 c-8 -9 -11 -19 -7 -23 9 -9 29 13 24 27 -2 8 -8 7 -17
-4z"/>
<path d="M17150 10899 c0 -5 5 -7 10 -4 6 3 10 8 10 11 0 2 -4 4 -10 4 -5 0
-10 -5 -10 -11z"/>
<path d="M17653 10580 c-13 -5 -23 -17 -23 -26 0 -15 4 -14 25 6 14 13 25 25
25 27 0 4 0 4 -27 -7z"/>
<path d="M5738 10513 c-26 -7 -32 -86 -7 -91 17 -3 112 75 105 87 -5 8 -73 11
-98 4z"/>
<path d="M14304 10446 c-10 -8 -16 -17 -13 -20 3 -3 14 3 24 14 21 23 17 26
-11 6z"/>
<path d="M17274 10390 c3 -60 24 -73 22 -14 0 26 -6 49 -12 51 -7 2 -11 -11
-10 -37z"/>
<path d="M17540 10420 c0 -5 7 -10 16 -10 8 0 12 5 9 10 -3 6 -10 10 -16 10
-5 0 -9 -4 -9 -10z"/>
<path d="M5686 10374 c-9 -8 -16 -21 -16 -29 0 -7 -7 -15 -15 -19 -8 -3 -15
-12 -15 -21 0 -8 -4 -15 -8 -15 -5 0 -16 -16 -26 -36 -16 -35 -16 -37 1 -50
10 -7 25 -13 33 -14 27 0 89 117 85 160 -4 36 -5 40 -14 40 -5 0 -17 -7 -25
-16z"/>
<path d="M14285 10370 c-3 -5 -3 -15 1 -21 6 -11 23 6 24 24 0 10 -18 9 -25
-3z"/>
<path d="M5541 10154 c-18 -23 -18 -64 0 -64 5 0 9 -5 9 -11 0 -8 -4 -9 -13 0
-19 15 -27 4 -27 -34 0 -48 21 -61 50 -30 19 20 23 37 25 89 2 74 -12 90 -44
50z"/>
<path d="M12294 9849 c-8 -13 25 -24 37 -12 7 7 3 12 -10 16 -12 3 -24 1 -27
-4z"/>
<path d="M16343 9852 c-7 -4 -8 -13 -4 -20 6 -10 10 -10 20 2 13 16 2 29 -16
18z"/>
<path d="M8861 9826 c-12 -13 -25 -38 -27 -56 -5 -30 -4 -31 16 -20 20 11 50
65 50 90 0 17 -15 11 -39 -14z"/>
<path d="M16320 9685 c0 -8 7 -15 15 -15 8 0 15 7 15 15 0 8 -7 15 -15 15 -8
0 -15 -7 -15 -15z"/>
<path d="M16330 9479 c0 -20 4 -29 9 -23 15 15 17 47 4 51 -9 3 -13 -6 -13
-28z"/>
<path d="M14925 9457 c-10 -8 -15 -19 -11 -26 10 -15 22 -7 29 19 6 24 6 24
-18 7z"/>
<path d="M8600 9432 c-21 -9 -19 -36 3 -40 13 -3 17 3 17 22 0 14 -1 26 -2 25
-2 0 -10 -3 -18 -7z"/>
<path d="M8458 9243 c-20 -25 -52 -76 -54 -88 -1 -5 -5 -18 -9 -27 -17 -43 37
6 82 74 32 48 16 82 -19 41z"/>
<path d="M6245 9182 c-28 -6 -49 -42 -25 -42 12 0 56 38 49 43 -2 2 -13 1 -24
-1z"/>
<path d="M15890 9152 c-26 -8 -60 -45 -60 -64 0 -10 -9 -23 -20 -30 -18 -11
-18 -14 -3 -30 9 -10 22 -18 29 -18 17 0 57 57 70 102 12 40 9 49 -16 40z"/>
<path d="M14075 9110 c-9 -15 3 -30 20 -24 7 3 11 12 8 20 -6 16 -19 18 -28 4z"/>
<path d="M16306 9101 c-3 -4 1 -17 9 -27 14 -18 14 -18 15 9 0 26 -13 36 -24
18z"/>
<path d="M11804 9069 c-44 -13 -128 -71 -132 -91 -2 -11 6 -18 27 -23 24 -5
31 -12 31 -31 0 -15 -4 -23 -11 -19 -14 10 -99 -81 -99 -106 0 -11 -11 -42
-25 -69 -42 -83 -31 -120 37 -120 31 0 40 5 47 23 5 12 6 27 4 33 -2 7 10 41
28 75 18 35 33 71 34 79 1 25 14 38 45 45 34 8 39 21 11 30 -44 14 -34 59 28
126 52 57 46 69 -25 48z"/>
<path d="M15826 8941 c-3 -4 5 -13 18 -19 19 -8 25 -8 29 3 3 7 3 16 0 19 -9
9 -41 7 -47 -3z"/>
<path d="M14060 8795 c-8 -9 -8 -15 -2 -15 12 0 26 19 19 26 -2 2 -10 -2 -17
-11z"/>
<path d="M14049 8680 c-2 -13 -2 -37 0 -52 2 -21 21 14 21 40 0 21 -19 32 -21
12z"/>
<path d="M15537 8652 c-31 -33 -35 -47 -8 -33 10 6 20 8 23 6 3 -3 10 6 16 20
16 35 -1 39 -31 7z"/>
<path d="M15380 8257 c-26 -42 -25 -49 4 -36 31 15 51 55 30 63 -9 4 -22 -6
-34 -27z"/>
<path d="M7755 7985 c-11 -19 -16 -37 -13 -41 10 -9 70 54 63 66 -12 19 -32
10 -50 -25z"/>
<path d="M11430 7996 c0 -8 9 -14 19 -13 15 1 17 4 9 14 -14 17 -28 16 -28 -1z"/>
<path d="M10010 7896 c0 -8 3 -17 8 -19 9 -6 33 19 25 27 -12 11 -33 6 -33 -8z"/>
<path d="M5840 7749 c0 -11 4 -18 10 -14 5 3 7 12 3 20 -7 21 -13 19 -13 -6z"/>
<path d="M15055 7729 c-9 -27 0 -35 20 -19 19 16 19 26 1 33 -9 4 -17 -2 -21
-14z"/>
<path d="M11216 7573 c-4 -10 0 -23 10 -32 9 -9 14 -11 10 -4 -3 6 -2 14 3 18
11 6 3 35 -9 35 -4 0 -11 -8 -14 -17z"/>
<path d="M14857 7504 c-4 -4 -7 -14 -7 -23 0 -11 3 -12 11 -4 6 6 10 16 7 23
-2 6 -7 8 -11 4z"/>
<path d="M11133 7392 c-11 -7 -16 -26 -14 -50 2 -19 41 9 41 30 0 20 -12 29
-27 20z"/>
</g>
</svg>
