<svg width="23" height="24" viewBox="0 0 23 24" fill="none" xmlns="http://www.w3.org/2000/svg">
<path fill-rule="evenodd" clip-rule="evenodd" d="M14.9962 1.15744C15.0118 1.05334 15.1088 0.981556 15.2129 0.997114C15.317 1.01267 15.3888 1.10968 15.3732 1.21379L15.2818 1.8258C15.2662 1.92991 15.1692 2.00169 15.0651 1.98613C14.961 1.97057 14.8892 1.87356 14.9048 1.76946L14.9962 1.15744ZM18.6952 7.65321C18.6952 10.0743 16.7325 12.0369 14.3115 12.0369C11.8905 12.0369 9.92781 10.0743 9.92781 7.65321C9.92781 5.23217 11.8905 3.26953 14.3115 3.26953C16.7325 3.26953 18.6952 5.23217 18.6952 7.65321ZM19.1072 3.04808C19.0321 2.9743 18.9114 2.97535 18.8376 3.05043L18.4039 3.4918C18.3301 3.56688 18.3312 3.68755 18.4062 3.76133C18.4813 3.83511 18.602 3.83406 18.6758 3.75898L19.1095 3.31761C19.1833 3.24253 19.1822 3.12186 19.1072 3.04808ZM20.8079 7.16815C20.9132 7.16723 20.9993 7.25182 21.0002 7.35708C21.0011 7.46233 20.9165 7.54841 20.8113 7.54933L20.1925 7.55473C20.0872 7.55565 20.0011 7.47106 20.0002 7.3658C19.9993 7.26054 20.0839 7.17447 20.1891 7.17355L20.8079 7.16815ZM19.6718 11.5181C19.7373 11.4358 19.7236 11.3159 19.6412 11.2503L19.157 10.8651C19.0746 10.7996 18.9547 10.8132 18.8891 10.8956C18.8236 10.978 18.8373 11.0979 18.9197 11.1634L19.4039 11.5486C19.4863 11.6142 19.6062 11.6005 19.6718 11.5181ZM10.8001 2.11189C10.742 2.02411 10.7661 1.90586 10.8538 1.84776C10.9416 1.78966 11.0599 1.81372 11.118 1.9015L11.4595 2.41751C11.5176 2.50529 11.4935 2.62355 11.4058 2.68164C11.318 2.73974 11.1997 2.71568 11.1416 2.62791L10.8001 2.11189ZM8.49884 4.88312C8.45352 4.97813 8.4938 5.09188 8.58881 5.1372L9.14734 5.4036C9.24235 5.44892 9.3561 5.40864 9.40142 5.31363C9.44674 5.21862 9.40645 5.10487 9.31145 5.05955L8.75292 4.79314C8.65791 4.74783 8.54415 4.78811 8.49884 4.88312Z" fill="#F8A700"/>
<circle cx="14.0075" cy="13.0025" r="4.00249" fill="#E4E5E7"/>
<g filter="url(#filter0_d_208_2183)">
<path fill-rule="evenodd" clip-rule="evenodd" d="M15.7227 9.57159C15.7227 10.0365 15.6435 10.4829 15.4977 10.8981C16.1099 11.5466 16.4852 12.4212 16.4852 13.3834C16.4852 15.3834 14.8639 17.0047 12.8639 17.0047H6.04158C6.02857 17.0049 6.01554 17.0049 6.00249 17.0049C5.98945 17.0049 5.97642 17.0049 5.9634 17.0047H5.6213C3.62132 17.0047 2 15.3834 2 13.3834C2 13.3211 2.00157 13.2592 2.00468 13.1977C2.00157 13.133 2 13.0679 2 13.0024C2 10.7919 3.79198 8.99994 6.00249 8.99994C6.61797 8.99994 7.201 9.13886 7.72193 9.38706C7.81836 7.2622 9.57158 5.56909 11.7202 5.56909C13.9308 5.56909 15.7227 7.36107 15.7227 9.57159Z" fill="#F0F2F4"/>
</g>
<defs>
<filter id="filter0_d_208_2183" x="0" y="3.56909" width="22.4852" height="19.4358" filterUnits="userSpaceOnUse" color-interpolation-filters="sRGB">
<feFlood flood-opacity="0" result="BackgroundImageFix"/>
<feColorMatrix in="SourceAlpha" type="matrix" values="0 0 0 0 0 0 0 0 0 0 0 0 0 0 0 0 0 0 127 0" result="hardAlpha"/>
<feOffset dx="2" dy="2"/>
<feGaussianBlur stdDeviation="2"/>
<feComposite in2="hardAlpha" operator="out"/>
<feColorMatrix type="matrix" values="0 0 0 0 0 0 0 0 0 0 0 0 0 0 0 0 0 0 0.15 0"/>
<feBlend mode="normal" in2="BackgroundImageFix" result="effect1_dropShadow_208_2183"/>
<feBlend mode="normal" in="SourceGraphic" in2="effect1_dropShadow_208_2183" result="shape"/>
</filter>
</defs>
</svg>
