<svg width="132" height="69" viewBox="0 0 132 69" fill="none" xmlns="http://www.w3.org/2000/svg">
<path d="M27.1539 69C10.9491 69 0 57.3544 0 42.6519C0 27.9493 11.6791 16.1582 27.1539 16.1582C42.6287 16.1582 54.4537 27.9493 54.4537 42.5063C54.4537 57.3544 43.3586 69 27.1539 69ZM44.8185 52.8417V33.7721C44.8185 27.9493 41.8987 23.4367 34.5993 23.4367H19.8545C12.555 23.4367 9.48926 27.8038 9.48926 33.7721V52.8417C9.48926 58.8101 12.409 61.5759 19.8545 61.5759H34.5993C41.8987 61.5759 44.8185 58.6645 44.8185 52.8417Z" fill="#213A8F"/>
<path d="M86.7172 16.1582C71.2424 16.1582 63.943 25.0379 63.943 32.3164V67.5443H72.7023V27.9493C72.7023 25.0379 74.1622 23.5823 77.082 23.5823H96.3525C99.2722 23.5823 100.732 25.0379 100.732 27.9493V67.5443H109.637V32.3164C109.637 25.0379 102.192 16.1582 86.7172 16.1582Z" fill="#213A8F"/>
<path d="M131.682 26.4937C131.682 20.6709 128.762 17.6139 122.922 17.6139H119.273C119.273 17.6139 118.543 19.0696 118.543 20.5253C118.543 21.981 119.273 23.4367 119.273 23.4367H121.462C122.922 23.4367 122.922 24.8924 122.922 26.3481V67.3987H131.682V26.4937ZM130.222 10.3354H122.922C122.192 10.3354 121.462 9.60759 121.462 8.87975V1.4557C121.462 0.727848 122.192 0 122.922 0H130.222C130.952 0 131.682 0.727848 131.682 1.4557V8.73418C131.682 9.6076 130.952 10.3354 130.222 10.3354Z" fill="#213A8F"/>
</svg>
