<svg width="668" height="667" viewBox="0 0 668 667" fill="none" xmlns="http://www.w3.org/2000/svg">
<path d="M667.347 0.147369V666.8H0.652649V0.147369H667.347ZM97.8737 446.589L257.663 344.147L97.8737 226.337V446.589ZM139.137 215.347L295.179 330.421C306.598 337.878 319.941 341.849 333.579 341.849C347.217 341.849 360.56 337.878 371.979 330.421L527.937 215.389L139.137 215.347ZM515.432 451.768L379.558 364.61C365.203 371.531 349.473 375.124 333.537 375.124C317.601 375.124 301.871 371.531 287.516 364.61L151.516 451.768H515.432ZM569.2 226.337L409.411 344.189L569.2 446.674V226.337Z" fill="currentColor"/>
</svg>
